<svg width="25" height="24" viewBox="0 0 25 24" fill="none" xmlns="http://www.w3.org/2000/svg">
<path d="M12.5 22.75C11.9 22.75 11.31 22.61 10.83 22.34L6.10001 19.61C4.14001 18.29 4.01001 18.05 4.01001 15.98V11.02C4.01001 8.95 4.14001 8.71 6.06001 7.42L10.84 4.66C11.79 4.11 13.22 4.11 14.17 4.66L18.9 7.39C20.86 8.71 20.99 8.95 20.99 11.02V15.98C20.99 18.05 20.86 18.29 18.94 19.58L14.16 22.34C13.69 22.62 13.09 22.75 12.5 22.75ZM12.5 5.75C12.16 5.75 11.82 5.82 11.58 5.96L6.85001 8.69C5.51001 9.6 5.51001 9.6 5.51001 11.02V15.98C5.51001 17.4 5.51001 17.4 6.90001 18.34L11.59 21.04C12.07 21.32 12.94 21.32 13.42 21.04L18.15 18.31C19.49 17.4 19.49 17.4 19.49 15.98V11.02C19.49 9.6 19.49 9.6 18.1 8.66L13.41 5.96C13.18 5.82 12.84 5.75 12.5 5.75Z" fill="#0E0E15"/>
<path d="M18 8.38C17.59 8.38 17.25 8.04 17.25 7.63V5C17.25 3.42 16.58 2.75 15 2.75H10C8.42 2.75 7.75 3.42 7.75 5V7.56C7.75 7.97 7.41 8.31 7 8.31C6.59 8.31 6.25 7.98 6.25 7.56V5C6.25 2.58 7.58 1.25 10 1.25H15C17.42 1.25 18.75 2.58 18.75 5V7.63C18.75 8.04 18.41 8.38 18 8.38Z" fill="#0E0E15"/>
<path d="M14.13 17.63C13.92 17.63 13.7 17.59 13.48 17.5L12.5 17.12L11.52 17.51C10.99 17.72 10.45 17.67 10.05 17.38C9.64999 17.09 9.43999 16.59 9.46999 16.02L9.52999 14.97L8.85999 14.16C8.49999 13.71 8.37999 13.19 8.53999 12.71C8.68999 12.24 9.09999 11.88 9.64999 11.74L10.67 11.48L11.24 10.59C11.85 9.63 13.16 9.63 13.77 10.59L14.34 11.48L15.36 11.74C15.91 11.88 16.32 12.24 16.47 12.71C16.62 13.18 16.5 13.71 16.14 14.15L15.47 14.96L15.53 16.01C15.56 16.58 15.35 17.07 14.95 17.37C14.71 17.54 14.43 17.63 14.13 17.63ZM10.02 13.2L10.69 14.01C10.92 14.28 11.05 14.71 11.03 15.06L10.97 16.11L11.95 15.72C12.28 15.59 12.72 15.59 13.05 15.72L14.03 16.11L13.97 15.06C13.95 14.71 14.08 14.29 14.31 14.01L14.98 13.2L13.96 12.94C13.62 12.85 13.26 12.59 13.07 12.3L12.51 11.42L11.94 12.3C11.75 12.6 11.39 12.86 11.05 12.95L10.02 13.2Z" fill="#0E0E15"/>
</svg>
