<svg width="10" height="10" viewBox="0 0 10 10" fill="none" xmlns="http://www.w3.org/2000/svg">
<path d="M5.00016 0.833374C2.70433 0.833374 0.833496 2.70421 0.833496 5.00004C0.833496 7.29587 2.70433 9.16671 5.00016 9.16671C7.296 9.16671 9.16683 7.29587 9.16683 5.00004C9.16683 2.70421 7.296 0.833374 5.00016 0.833374ZM6.16266 5.22087L4.69183 6.69171C4.62933 6.75421 4.55016 6.78337 4.471 6.78337C4.39183 6.78337 4.31266 6.75421 4.25016 6.69171C4.12933 6.57087 4.12933 6.37087 4.25016 6.25004L5.50016 5.00004L4.25016 3.75004C4.12933 3.62921 4.12933 3.42921 4.25016 3.30837C4.371 3.18754 4.571 3.18754 4.69183 3.30837L6.16266 4.77921C6.28766 4.90004 6.28766 5.10004 6.16266 5.22087Z" fill="#3461FD"/>
</svg>
