<svg width="20" height="20" viewBox="0 0 20 20" fill="none" xmlns="http://www.w3.org/2000/svg">
<path d="M10 1.875C5.52 1.875 1.875 5.52 1.875 10C1.875 14.48 5.52 18.125 10 18.125C14.48 18.125 18.125 14.48 18.125 10C18.125 5.52 14.48 1.875 10 1.875ZM9.29688 3.16438C9.32188 3.16125 9.34937 3.16625 9.375 3.16438V3.75H10.625V3.16375C12.2241 3.30705 13.722 4.00748 14.8573 5.14273C15.9925 6.27798 16.6929 7.77592 16.8363 9.375H16.25V10.625H16.8363C16.6929 12.2241 15.9925 13.722 14.8573 14.8573C13.722 15.9925 12.2241 16.6929 10.625 16.8363V16.25H9.375V16.8363C7.77592 16.6929 6.27798 15.9925 5.14273 14.8573C4.00748 13.722 3.30705 12.2241 3.16375 10.625H3.75V9.375H3.16375C3.45875 6.09812 6.03063 3.49375 9.29688 3.16375V3.16438ZM13.8094 6.19125L8.49688 8.49625L6.19062 13.8088L11.5031 11.5037L13.8094 6.19125ZM10 9.0625C10.5 9.0625 10.9375 9.5 10.9375 10C10.9375 10.5 10.5 10.9375 10 10.9375C9.5 10.9375 9.0625 10.5 9.0625 10C9.0625 9.5 9.5 9.0625 10 9.0625Z" fill="#3461FD"/>
</svg>
