<svg width="38" height="40" viewBox="0 0 38 40" fill="none" xmlns="http://www.w3.org/2000/svg">
<path d="M18.2367 33.3333H2.99933C1.52659 33.3333 0.332764 32.1394 0.332764 30.6667V28H20.7982L18.2367 33.3333Z" fill="#D3DCFB"/>
<path d="M35.002 12V30.6666H2.99933C1.52659 30.6666 0.332764 29.4727 0.332764 27.9999V12L19.0007 5.33328L35.002 12Z" fill="#EBF5FC"/>
<path d="M5.04188 17.3334H3.62524C3.45948 17.3334 3.30051 17.2675 3.1833 17.1503C3.06609 17.0331 3.00024 16.8741 3.00024 16.7084V15.2917C3.00024 15.126 3.06609 14.967 3.1833 14.8498C3.30051 14.7326 3.45948 14.6667 3.62524 14.6667H5.04188C5.20764 14.6667 5.36662 14.7326 5.48383 14.8498C5.60104 14.967 5.66688 15.126 5.66688 15.2917V16.7084C5.66688 16.8741 5.60104 17.0331 5.48383 17.1503C5.36662 17.2675 5.20764 17.3334 5.04188 17.3334ZM10.3752 17.3334H8.9586C8.79284 17.3334 8.63387 17.2675 8.51666 17.1503C8.39945 17.0331 8.3336 16.8741 8.3336 16.7084V15.2917C8.3336 15.126 8.39945 14.967 8.51666 14.8498C8.63387 14.7326 8.79284 14.6667 8.9586 14.6667H10.3752C10.541 14.6667 10.7 14.7326 10.8172 14.8498C10.9344 14.967 11.0002 15.126 11.0002 15.2917V16.7084C11.0002 16.8741 10.9344 17.0331 10.8172 17.1503C10.7 17.2675 10.541 17.3334 10.3752 17.3334ZM15.7085 17.3334H14.2919C14.1261 17.3334 13.9672 17.2675 13.8499 17.1503C13.7327 17.0331 13.6669 16.8741 13.6669 16.7084V15.2917C13.6669 15.126 13.7327 14.967 13.8499 14.8498C13.9672 14.7326 14.1261 14.6667 14.2919 14.6667H15.7085C15.8743 14.6667 16.0333 14.7326 16.1505 14.8498C16.2677 14.967 16.3335 15.126 16.3335 15.2917V16.7084C16.3335 16.8741 16.2677 17.0331 16.1505 17.1503C16.0333 17.2675 15.8743 17.3334 15.7085 17.3334ZM21.0419 17.3334H19.6252C19.4595 17.3334 19.3005 17.2675 19.1833 17.1503C19.0661 17.0331 19.0002 16.8741 19.0002 16.7084V15.2917C19.0002 15.126 19.0661 14.967 19.1833 14.8498C19.3005 14.7326 19.4595 14.6667 19.6252 14.6667H21.0419C21.2076 14.6667 21.3666 14.7326 21.4838 14.8498C21.601 14.967 21.6669 15.126 21.6669 15.2917V16.7084C21.6669 16.8741 21.601 17.0331 21.4838 17.1503C21.3666 17.2675 21.2076 17.3334 21.0419 17.3334ZM26.3743 17.3334H24.9577C24.7919 17.3334 24.6329 17.2675 24.5157 17.1503C24.3985 17.0331 24.3327 16.8741 24.3327 16.7084V15.2917C24.3327 15.126 24.3985 14.967 24.5157 14.8498C24.6329 14.7326 24.7919 14.6667 24.9577 14.6667H26.3743C26.5401 14.6667 26.699 14.7326 26.8162 14.8498C26.9335 14.967 26.9993 15.126 26.9993 15.2917V16.7084C26.9993 16.8741 26.9335 17.0331 26.8162 17.1503C26.699 17.2675 26.5401 17.3334 26.3743 17.3334ZM31.7077 17.3334H30.291C30.1253 17.3334 29.9663 17.2675 29.8491 17.1503C29.7319 17.0331 29.666 16.8741 29.666 16.7084V15.2917C29.666 15.126 29.7319 14.967 29.8491 14.8498C29.9663 14.7326 30.1253 14.6667 30.291 14.6667H31.7077C31.8734 14.6667 32.0324 14.7326 32.1496 14.8498C32.2668 14.967 32.3327 15.126 32.3327 15.2917V16.7084C32.3327 16.8741 32.2668 17.0331 32.1496 17.1503C32.0324 17.2675 31.8734 17.3334 31.7077 17.3334ZM5.04188 22.6666H3.62524C3.45948 22.6666 3.30051 22.6008 3.1833 22.4836C3.06609 22.3664 3.00024 22.2074 3.00024 22.0416V20.625C3.00024 20.4592 3.06609 20.3003 3.1833 20.1831C3.30051 20.0658 3.45948 20 3.62524 20H5.04188C5.20764 20 5.36662 20.0658 5.48383 20.1831C5.60104 20.3003 5.66688 20.4592 5.66688 20.625V22.0416C5.66688 22.2074 5.60104 22.3664 5.48383 22.4836C5.36662 22.6008 5.20764 22.6666 5.04188 22.6666ZM10.3752 22.6666H8.9586C8.79284 22.6666 8.63387 22.6008 8.51666 22.4836C8.39945 22.3664 8.3336 22.2074 8.3336 22.0416V20.625C8.3336 20.4592 8.39945 20.3003 8.51666 20.1831C8.63387 20.0658 8.79284 20 8.9586 20H10.3752C10.541 20 10.7 20.0658 10.8172 20.1831C10.9344 20.3003 11.0002 20.4592 11.0002 20.625V22.0416C11.0002 22.2074 10.9344 22.3664 10.8172 22.4836C10.7 22.6008 10.541 22.6666 10.3752 22.6666ZM15.7085 22.6666H14.2919C14.1261 22.6666 13.9672 22.6008 13.8499 22.4836C13.7327 22.3664 13.6669 22.2074 13.6669 22.0416V20.625C13.6669 20.4592 13.7327 20.3003 13.8499 20.1831C13.9672 20.0658 14.1261 20 14.2919 20H15.7085C15.8743 20 16.0333 20.0658 16.1505 20.1831C16.2677 20.3003 16.3335 20.4592 16.3335 20.625V22.0416C16.3335 22.2074 16.2677 22.3664 16.1505 22.4836C16.0333 22.6008 15.8743 22.6666 15.7085 22.6666ZM21.6669 22.6666V20.6666C21.6669 20.5791 21.6496 20.4924 21.6161 20.4115C21.5826 20.3306 21.5335 20.2572 21.4716 20.1953C21.4097 20.1334 21.3362 20.0842 21.2554 20.0507C21.1745 20.0172 21.0878 20 21.0002 20H19.6669C19.4901 20 19.3205 20.0702 19.1955 20.1953C19.0705 20.3203 19.0002 20.4898 19.0002 20.6666V22C19.0002 22.1768 19.0705 22.3464 19.1955 22.4714C19.3205 22.5964 19.4901 22.6666 19.6669 22.6666H21.6669ZM5.04188 28H3.62524C3.45948 28 3.30051 27.9342 3.1833 27.8169C3.06609 27.6997 3.00024 27.5408 3.00024 27.375V25.9584C3.00024 25.7926 3.06609 25.6336 3.1833 25.5164C3.30051 25.3992 3.45948 25.3334 3.62524 25.3334H5.04188C5.20764 25.3334 5.36662 25.3992 5.48383 25.5164C5.60104 25.6336 5.66688 25.7926 5.66688 25.9584V27.375C5.66688 27.5408 5.60104 27.6997 5.48383 27.8169C5.36662 27.9342 5.20764 28 5.04188 28ZM10.3752 28H8.9586C8.79284 28 8.63387 27.9342 8.51666 27.8169C8.39945 27.6997 8.3336 27.5408 8.3336 27.375V25.9584C8.3336 25.7926 8.39945 25.6336 8.51666 25.5164C8.63387 25.3992 8.79284 25.3334 8.9586 25.3334H10.3752C10.541 25.3334 10.7 25.3992 10.8172 25.5164C10.9344 25.6336 11.0002 25.7926 11.0002 25.9584V27.375C11.0002 27.5408 10.9344 27.6997 10.8172 27.8169C10.7 27.9342 10.541 28 10.3752 28ZM15.7085 28H14.2919C14.1261 28 13.9672 27.9342 13.8499 27.8169C13.7327 27.6997 13.6669 27.5408 13.6669 27.375V25.9584C13.6669 25.7926 13.7327 25.6336 13.8499 25.5164C13.9672 25.3992 14.1261 25.3334 14.2919 25.3334H15.7085C15.8743 25.3334 16.0333 25.3992 16.1505 25.5164C16.2677 25.6336 16.3335 25.7926 16.3335 25.9584V27.375C16.3335 27.5408 16.2677 27.6997 16.1505 27.8169C16.0333 27.9342 15.8743 28 15.7085 28Z" fill="#3C58A0"/>
<path d="M31.6889 14.6666H30.31C30.2265 14.6666 30.1471 14.683 30.0739 14.7119C30.1941 14.7592 30.2972 14.8416 30.3699 14.9484C30.4427 15.0551 30.4816 15.1813 30.4816 15.3105V16.6894C30.4816 16.9615 30.3125 17.1937 30.0739 17.288C30.1471 17.3169 30.2265 17.3333 30.31 17.3333H31.6889C31.8596 17.3333 32.0234 17.2654 32.1441 17.1447C32.2649 17.024 32.3327 16.8602 32.3328 16.6894V15.3105C32.3327 15.1398 32.2649 14.976 32.1441 14.8552C32.0234 14.7345 31.8596 14.6666 31.6889 14.6666ZM26.3555 14.6666H24.9766C24.8932 14.6666 24.8137 14.683 24.7405 14.7119C24.8607 14.7592 24.9639 14.8416 25.0366 14.9484C25.1093 15.0551 25.1482 15.1813 25.1482 15.3105V16.6894C25.1482 16.9615 24.9791 17.1937 24.7405 17.288C24.8137 17.3169 24.8932 17.3333 24.9766 17.3333H26.3555C26.4401 17.3333 26.5238 17.3166 26.6019 17.2843C26.68 17.2519 26.751 17.2045 26.8108 17.1447C26.8706 17.0849 26.918 17.014 26.9503 16.9358C26.9827 16.8577 26.9993 16.774 26.9993 16.6894V15.3105C26.9993 15.226 26.9827 15.1422 26.9503 15.0641C26.918 14.986 26.8706 14.915 26.8108 14.8552C26.751 14.7954 26.68 14.748 26.6019 14.7156C26.5238 14.6833 26.4401 14.6666 26.3555 14.6666ZM21.0231 14.6666H19.6442C19.5607 14.6666 19.4813 14.683 19.4081 14.7119C19.6468 14.8061 19.8159 15.0383 19.8159 15.3105V16.6894C19.8159 16.9615 19.6468 17.1937 19.4081 17.288C19.4813 17.3169 19.5607 17.3333 19.6442 17.3333H21.0231C21.1938 17.3333 21.3576 17.2654 21.4784 17.1447C21.5991 17.024 21.667 16.8602 21.667 16.6894V15.3105C21.667 15.1398 21.5991 14.976 21.4784 14.8552C21.3576 14.7345 21.1938 14.6666 21.0231 14.6666ZM15.6897 14.6666H14.3108C14.2274 14.6666 14.1479 14.683 14.0747 14.7119C14.3134 14.8061 14.4825 15.0383 14.4825 15.3105V16.6894C14.4825 16.9615 14.3134 17.1937 14.0747 17.288C14.1479 17.3169 14.2274 17.3333 14.3108 17.3333H15.6897C15.8605 17.3333 16.0243 17.2654 16.145 17.1447C16.2658 17.024 16.3336 16.8602 16.3336 16.6894V15.3105C16.3336 15.1398 16.2658 14.976 16.145 14.8552C16.0243 14.7345 15.8605 14.6666 15.6897 14.6666ZM10.3564 14.6666H8.97746C8.89402 14.6666 8.81457 14.683 8.74136 14.7119C8.86155 14.7592 8.96472 14.8416 9.03744 14.9484C9.11016 15.0551 9.14906 15.1813 9.1491 15.3105V16.6894C9.1491 16.9615 8.97996 17.1937 8.74136 17.288C8.81457 17.3169 8.89402 17.3333 8.97746 17.3333H10.3564C10.5271 17.3333 10.6909 17.2654 10.8116 17.1447C10.9324 17.024 11.0002 16.8602 11.0003 16.6894V15.3105C11.0003 15.1398 10.9324 14.976 10.8117 14.8552C10.6909 14.7345 10.5271 14.6666 10.3564 14.6666ZM5.02308 14.6666H3.64417C3.56074 14.6666 3.48128 14.683 3.40808 14.7119C3.64675 14.8061 3.81589 15.0383 3.81589 15.3105V16.6894C3.81589 16.9615 3.64675 17.1937 3.40808 17.288C3.48128 17.3169 3.56074 17.3333 3.64417 17.3333H5.02308C5.19384 17.3333 5.35761 17.2654 5.47836 17.1447C5.59912 17.024 5.66697 16.8602 5.66699 16.6894V15.3105C5.66697 15.1398 5.59912 14.976 5.47837 14.8552C5.35762 14.7345 5.19385 14.6666 5.02308 14.6666ZM5.02308 20H3.64417C3.56074 20 3.48128 20.0164 3.40808 20.0452C3.64675 20.1394 3.81589 20.3716 3.81589 20.6438V22.0228C3.81589 22.295 3.64675 22.5272 3.40808 22.6214C3.48128 22.6503 3.56074 22.6667 3.64417 22.6667H5.02308C5.19384 22.6667 5.35761 22.5989 5.47836 22.4781C5.59912 22.3574 5.66697 22.1936 5.66699 22.0229V20.6439C5.66697 20.4731 5.59912 20.3094 5.47837 20.1886C5.35762 20.0679 5.19385 20 5.02308 20ZM5.02308 25.3333H3.64417C3.56074 25.3333 3.48128 25.3498 3.40808 25.3786C3.64675 25.4728 3.81589 25.705 3.81589 25.9772V27.3562C3.81589 27.6283 3.64675 27.8605 3.40808 27.9548C3.48128 27.9837 3.56074 28.0001 3.64417 28.0001H5.02308C5.19384 28.0001 5.35761 27.9322 5.47836 27.8115C5.59912 27.6908 5.66697 27.527 5.66699 27.3562V25.9773C5.66697 25.8065 5.59912 25.6427 5.47837 25.522C5.35762 25.4012 5.19385 25.3334 5.02308 25.3333ZM10.3564 20H8.97746C8.89402 20 8.81457 20.0164 8.74136 20.0452C8.86155 20.0925 8.96472 20.175 9.03744 20.2817C9.11016 20.3885 9.14906 20.5146 9.1491 20.6438V22.0228C9.1491 22.295 8.97996 22.5272 8.74136 22.6214C8.81457 22.6503 8.89402 22.6667 8.97746 22.6667H10.3564C10.5271 22.6667 10.6909 22.5989 10.8116 22.4781C10.9324 22.3574 11.0002 22.1936 11.0003 22.0229V20.6439C11.0003 20.4731 10.9324 20.3093 10.8117 20.1886C10.6909 20.0678 10.5271 20 10.3564 20ZM10.3564 25.3333H8.97746C8.89402 25.3333 8.81457 25.3498 8.74136 25.3786C8.86155 25.4259 8.96472 25.5083 9.03744 25.6151C9.11016 25.7218 9.14906 25.848 9.1491 25.9772V27.3562C9.1491 27.6283 8.97996 27.8605 8.74136 27.9548C8.81457 27.9837 8.89402 28.0001 8.97746 28.0001H10.3564C10.5271 28.0001 10.6909 27.9322 10.8116 27.8115C10.9324 27.6908 11.0002 27.527 11.0003 27.3562V25.9773C11.0003 25.8927 10.9836 25.809 10.9513 25.7308C10.9189 25.6527 10.8715 25.5817 10.8117 25.5219C10.7519 25.4621 10.6809 25.4147 10.6028 25.3823C10.5247 25.35 10.4409 25.3333 10.3564 25.3333ZM15.6897 20H14.3108C14.2274 20 14.1479 20.0164 14.0747 20.0452C14.3134 20.1394 14.4825 20.3716 14.4825 20.6438V22.0228C14.4825 22.295 14.3134 22.5272 14.0747 22.6214C14.1479 22.6503 14.2274 22.6667 14.3108 22.6667H15.6897C15.8605 22.6667 16.0243 22.5989 16.145 22.4781C16.2658 22.3574 16.3336 22.1936 16.3336 22.0229V20.6439C16.3336 20.4731 16.2658 20.3094 16.145 20.1886C16.0243 20.0679 15.8605 20 15.6897 20ZM21.6669 22.6666V20.6438C21.6669 20.5593 21.6503 20.4755 21.6179 20.3974C21.5855 20.3193 21.5381 20.2483 21.4783 20.1885C21.4185 20.1287 21.3475 20.0813 21.2694 20.049C21.1913 20.0166 21.1076 20 21.023 20H19.6441C19.5607 20 19.4812 20.0164 19.408 20.0452C19.6467 20.1394 19.8158 20.3716 19.8158 20.6438V22.0228C19.8158 22.295 19.6467 22.5272 19.408 22.6214C19.4812 22.6503 19.5607 22.6667 19.6441 22.6667H21.6669V22.6666ZM15.6897 25.3333H14.3108C14.2274 25.3333 14.1479 25.3498 14.0747 25.3786C14.3134 25.4728 14.4825 25.705 14.4825 25.9772V27.3562C14.4825 27.6283 14.3134 27.8605 14.0747 27.9548C14.1479 27.9837 14.2274 28.0001 14.3108 28.0001H15.6897C15.8605 28.0001 16.0243 27.9322 16.145 27.8115C16.2658 27.6908 16.3336 27.527 16.3336 27.3562V25.9773C16.3336 25.8927 16.317 25.809 16.2846 25.7308C16.2523 25.6527 16.2048 25.5817 16.145 25.5219C16.0852 25.4621 16.0143 25.4147 15.9361 25.3824C15.858 25.35 15.7743 25.3333 15.6897 25.3333Z" fill="#2A428C"/>
<path d="M33.1495 11.2282V30.6666H35.002V12L33.1495 11.2282Z" fill="#D3DCFB"/>
<path d="M35.002 12V5.33328C35.002 3.86055 33.8081 2.66672 32.3354 2.66672H2.99933C1.52659 2.66672 0.332764 3.86055 0.332764 5.33328V12H35.002Z" fill="#FF4155"/>
<path d="M8.73505 5.93695H6.99935C6.83926 5.93695 6.68574 5.87336 6.57254 5.76017C6.45934 5.64697 6.39575 5.49344 6.39575 5.33336C6.39575 5.17328 6.45934 5.01975 6.57254 4.90656C6.68574 4.79336 6.83926 4.72977 6.99935 4.72977H8.73505C8.89513 4.72977 9.04866 4.79336 9.16185 4.90656C9.27505 5.01975 9.33864 5.17328 9.33864 5.33336C9.33864 5.49344 9.27505 5.64697 9.16185 5.76017C9.04866 5.87336 8.89513 5.93695 8.73505 5.93695ZM12.9993 5.93695H11.2636C11.1035 5.93695 10.95 5.87336 10.8368 5.76017C10.7236 5.64697 10.66 5.49344 10.66 5.33336C10.66 5.17328 10.7236 5.01975 10.8368 4.90656C10.95 4.79336 11.1035 4.72977 11.2636 4.72977H12.9993C13.3327 4.72977 13.6029 5 13.6029 5.33336C13.6029 5.66672 13.3327 5.93695 12.9993 5.93695ZM24.0693 5.93695H22.3335C22.1734 5.93695 22.0199 5.87336 21.9067 5.76017C21.7935 5.64697 21.7299 5.49344 21.7299 5.33336C21.7299 5.17328 21.7935 5.01975 21.9067 4.90656C22.0199 4.79336 22.1734 4.72977 22.3335 4.72977H24.0693C24.4027 4.72977 24.6729 5 24.6729 5.33336C24.6729 5.66672 24.4027 5.93695 24.0693 5.93695ZM28.3336 5.93695H26.5978C26.4377 5.93695 26.2842 5.87336 26.171 5.76017C26.0578 5.64697 25.9942 5.49344 25.9942 5.33336C25.9942 5.17328 26.0578 5.01975 26.171 4.90656C26.2842 4.79336 26.4377 4.72977 26.5978 4.72977H28.3336C28.4936 4.72977 28.6472 4.79336 28.7604 4.90656C28.8736 5.01975 28.9372 5.17328 28.9372 5.33336C28.9372 5.49344 28.8736 5.64697 28.7604 5.76017C28.6472 5.87336 28.4936 5.93695 28.3336 5.93695Z" fill="#E80054"/>
<path d="M11.666 5C11.666 5.92047 10.9199 6.66664 9.9994 6.66664C9.07894 6.66664 8.33276 5.92047 8.33276 5V1.66664C8.33269 0.746172 9.07886 0 9.99933 0C10.9198 0 11.666 0.746172 11.666 1.66664V5H11.666ZM27.0003 5C27.0003 5.92047 26.2541 6.66664 25.3336 6.66664C24.4132 6.66664 23.6669 5.92047 23.6669 5V1.66664C23.6669 0.746172 24.4131 0 25.3335 0C26.254 0 27.0002 0.746172 27.0002 1.66664V5H27.0003Z" fill="#EBF5FC"/>
<path d="M25.3335 0C24.9913 0 24.6735 0.103438 24.4088 0.280313C24.8561 0.579219 25.1508 1.08836 25.1508 1.66672V5C25.1508 5.57828 24.8561 6.0875 24.4088 6.38641C24.6824 6.56953 25.0043 6.66711 25.3335 6.66672C26.254 6.66672 27.0001 5.92055 27.0001 5.00008V1.66664C27.0002 0.746172 26.254 0 25.3335 0ZM9.99927 0C9.65708 0 9.33927 0.103438 9.07458 0.280313C9.52185 0.579219 9.81662 1.08836 9.81662 1.66672V5C9.81662 5.57828 9.52185 6.0875 9.07458 6.38641C9.34817 6.56953 9.67006 6.66711 9.99927 6.66672C10.9197 6.66672 11.6659 5.92055 11.6659 5.00008V1.66664C11.666 0.746172 10.9198 0 9.99927 0Z" fill="#D3DCFB"/>
<path d="M32.3353 2.66663H30.4835C31.9563 2.66663 33.1501 3.86045 33.1501 5.33319V12H35.0018V5.33327C35.0019 3.86053 33.808 2.66663 32.3353 2.66663Z" fill="#E80054"/>
<path d="M0.332642 8.72968H35.0019V9.93694H0.332642V8.72968Z" fill="#E80054"/>
<path d="M27.6674 40C33.1902 40 37.6674 35.5228 37.6674 30C37.6674 24.4772 33.1902 20 27.6674 20C22.1445 20 17.6674 24.4772 17.6674 30C17.6674 35.5228 22.1445 40 27.6674 40Z" fill="#4FABF7"/>
<path d="M27.6673 37.3333C31.7174 37.3333 35.0007 34.0501 35.0007 30C35.0007 25.9499 31.7174 22.6666 27.6673 22.6666C23.6172 22.6666 20.334 25.9499 20.334 30C20.334 34.0501 23.6172 37.3333 27.6673 37.3333Z" fill="#EBF5FC"/>
<path d="M27.6673 29.2702C27.588 29.2702 27.5096 29.2546 27.4363 29.2243C27.3631 29.194 27.2965 29.1495 27.2405 29.0935C27.1844 29.0374 27.14 28.9709 27.1096 28.8976C27.0793 28.8244 27.0637 28.7459 27.0637 28.6666V25.3333C27.0637 25.1732 27.1273 25.0197 27.2405 24.9065C27.3537 24.7933 27.5072 24.7297 27.6673 24.7297C27.8274 24.7297 27.9809 24.7933 28.0941 24.9065C28.2073 25.0197 28.2709 25.1732 28.2709 25.3333V28.6666C28.2709 28.8267 28.2073 28.9802 28.0941 29.0934C27.9809 29.2066 27.8274 29.2702 27.6673 29.2702ZM31.0007 30.6036H29.0006C28.8405 30.6036 28.687 30.54 28.5738 30.4268C28.4606 30.3136 28.397 30.1601 28.397 30C28.397 29.8399 28.4606 29.6864 28.5738 29.5732C28.687 29.46 28.8405 29.3964 29.0006 29.3964H31.0007C31.1608 29.3964 31.3143 29.46 31.4275 29.5732C31.5407 29.6864 31.6043 29.8399 31.6043 30C31.6043 30.1601 31.5407 30.3136 31.4275 30.4268C31.3143 30.54 31.1608 30.6036 31.0007 30.6036Z" fill="#3C58A0"/>
<path d="M27.6673 20C27.3552 20 27.0466 20.0151 26.7418 20.043C31.8306 20.5102 35.8162 24.7893 35.8162 30C35.8162 35.2107 31.8305 39.4898 26.7417 39.957C27.0465 39.9849 27.3551 40 27.6672 40C33.1901 40 37.6672 35.5228 37.6672 30C37.6672 24.4772 33.1901 20 27.6673 20Z" fill="#1886EA"/>
<path d="M27.6674 22.6666C27.3541 22.6666 27.0454 22.6864 26.7424 22.7245C30.3559 23.1793 33.1509 26.2632 33.1509 30C33.1509 33.7368 30.3559 36.8207 26.7424 37.2755C27.0454 37.3136 27.3541 37.3333 27.6674 37.3333C31.7174 37.3333 35.0007 34.0501 35.0007 30C35.0007 25.9499 31.7174 22.6666 27.6674 22.6666Z" fill="#D3DCFB"/>
<path d="M27.6673 31.3333C28.4037 31.3333 29.0007 30.7364 29.0007 30C29.0007 29.2636 28.4037 28.6666 27.6673 28.6666C26.9309 28.6666 26.334 29.2636 26.334 30C26.334 30.7364 26.9309 31.3333 27.6673 31.3333Z" fill="#FFDD40"/>
</svg>
