<svg width="16" height="16" viewBox="0 0 16 16" fill="none" xmlns="http://www.w3.org/2000/svg">
<path d="M10.0002 15.1667H6.00018C5.12018 15.1667 4.38685 15.0801 3.76685 14.8934C3.54018 14.8267 3.39351 14.6067 3.40685 14.3734C3.57351 12.38 5.59351 10.8134 8.00018 10.8134C10.4068 10.8134 12.4202 12.3734 12.5935 14.3734C12.6135 14.6134 12.4668 14.8267 12.2335 14.8934C11.6135 15.0801 10.8802 15.1667 10.0002 15.1667ZM4.48018 14.04C4.92018 14.1267 5.42018 14.1667 6.00018 14.1667H10.0002C10.5802 14.1667 11.0802 14.1267 11.5202 14.04C11.1668 12.76 9.70684 11.8134 8.00018 11.8134C6.29351 11.8134 4.83351 12.76 4.48018 14.04Z" fill="#292D32"/>
<path d="M9.99992 1.33337H5.99992C2.66659 1.33337 1.33325 2.66671 1.33325 6.00004V10C1.33325 12.52 2.09325 13.9 3.90659 14.4134C4.05325 12.68 5.83325 11.3134 7.99992 11.3134C10.1666 11.3134 11.9466 12.68 12.0933 14.4134C13.9066 13.9 14.6666 12.52 14.6666 10V6.00004C14.6666 2.66671 13.3333 1.33337 9.99992 1.33337ZM7.99992 9.4467C6.67992 9.4467 5.61325 8.37339 5.61325 7.05339C5.61325 5.73339 6.67992 4.66671 7.99992 4.66671C9.31992 4.66671 10.3866 5.73339 10.3866 7.05339C10.3866 8.37339 9.31992 9.4467 7.99992 9.4467Z" stroke="#292D32" stroke-linecap="round" stroke-linejoin="round"/>
<path d="M7.99995 9.94661C6.40662 9.94661 5.11328 8.64664 5.11328 7.0533C5.11328 5.45997 6.40662 4.16663 7.99995 4.16663C9.59328 4.16663 10.8866 5.45997 10.8866 7.0533C10.8866 8.64664 9.59328 9.94661 7.99995 9.94661ZM7.99995 5.16663C6.95995 5.16663 6.11328 6.0133 6.11328 7.0533C6.11328 8.09997 6.95995 8.94661 7.99995 8.94661C9.03995 8.94661 9.88662 8.09997 9.88662 7.0533C9.88662 6.0133 9.03995 5.16663 7.99995 5.16663Z" fill="#292D32"/>
</svg>
