<svg width="15" height="15" viewBox="0 0 15 15" fill="none" xmlns="http://www.w3.org/2000/svg">
<path d="M9.35605 7.96875H8.8748H5.95605V9.7375H6.7748H9.35605C9.9498 9.7375 10.4373 9.3375 10.4373 8.85C10.4373 8.3625 9.9498 7.96875 9.35605 7.96875Z" fill="white"/>
<path d="M7.5 1.25C4.05 1.25 1.25 4.05 1.25 7.5C1.25 10.95 4.05 13.75 7.5 13.75C10.95 13.75 13.75 10.95 13.75 7.5C13.75 4.05 10.95 1.25 7.5 1.25ZM9.35625 10.675H8.325V11.5625C8.325 11.8187 8.1125 12.0312 7.85625 12.0312C7.6 12.0312 7.3875 11.8187 7.3875 11.5625V10.675H6.775H6.63125V11.5625C6.63125 11.8187 6.41875 12.0312 6.1625 12.0312C5.90625 12.0312 5.69375 11.8187 5.69375 11.5625V10.675H5.4875H4.40625C4.15 10.675 3.9375 10.4625 3.9375 10.2062C3.9375 9.95 4.15 9.7375 4.40625 9.7375H5.01875V7.5V5.2625H4.40625C4.15 5.2625 3.9375 5.05 3.9375 4.79375C3.9375 4.5375 4.15 4.325 4.40625 4.325H5.4875H5.69375V3.4375C5.69375 3.18125 5.90625 2.96875 6.1625 2.96875C6.41875 2.96875 6.63125 3.18125 6.63125 3.4375V4.325H6.775H7.3875V3.4375C7.3875 3.18125 7.6 2.96875 7.85625 2.96875C8.1125 2.96875 8.325 3.18125 8.325 3.4375V4.325H8.875C9.84375 4.325 10.7 5.175 10.7 6.15C10.7 6.56875 10.55 6.95 10.3125 7.2625C10.9437 7.56875 11.375 8.16875 11.375 8.8625C11.375 9.85625 10.4688 10.675 9.35625 10.675Z" fill="white"/>
<path d="M9.7623 6.14385C9.7623 5.73135 9.3748 5.25635 8.8748 5.25635H6.7748H5.95605V7.0251H8.8748C9.3623 7.03135 9.7623 6.63135 9.7623 6.14385Z" fill="white"/>
</svg>
