<svg width="20" height="21" viewBox="0 0 20 21" fill="none" xmlns="http://www.w3.org/2000/svg">
<path d="M16.4107 1.3904C14.8982 0.508971 13.1008 0.270218 11.4139 0.726652C9.72705 1.18309 8.28883 2.29732 7.41561 3.82428L7.17171 4.25078C7.12357 4.33478 7.0923 4.42754 7.07968 4.52375C7.06706 4.61996 7.07334 4.71774 7.09817 4.8115C7.12299 4.90526 7.16587 4.99316 7.22436 5.07018C7.28284 5.1472 7.35579 5.21183 7.43902 5.26038L11.8624 7.83906L9.12585 12.6753C7.29171 12.9107 5.67024 13.874 4.45951 15.2432C4.81437 15.3014 5.14638 15.4575 5.41891 15.6943C5.69143 15.931 5.89388 16.2391 6.0039 16.5847C6.23317 17.3067 6.71024 17.5263 7.09463 17.5303C7.48781 17.5352 7.93561 17.3205 8.14829 16.6753C8.27774 16.283 8.52619 15.9417 8.85845 15.6999C9.1907 15.4581 9.58992 15.3279 9.99951 15.3279C10.4091 15.3279 10.8083 15.4581 11.1406 15.6999C11.4728 15.9417 11.7213 16.283 11.8507 16.6753C12.0644 17.3205 12.5122 17.5352 12.9044 17.5303C13.2888 17.5263 13.7659 17.3067 13.9961 16.5847C14.1061 16.2391 14.3086 15.931 14.5811 15.6943C14.8536 15.4575 15.1856 15.3014 15.5405 15.2432C14.3171 13.8593 12.6741 12.89 10.8156 12.6674L13.1307 8.5778L17.5776 11.1703C17.6608 11.2189 17.7526 11.2504 17.8479 11.2632C17.9432 11.2759 18.0401 11.2696 18.1329 11.2445C18.2258 11.2194 18.3129 11.1762 18.3892 11.1171C18.4655 11.0581 18.5295 10.9844 18.5776 10.9004L18.8215 10.4729C19.6946 8.94596 19.9312 7.1314 19.4793 5.42833C19.0274 3.72526 17.924 2.27315 16.4117 1.39138M4.84293 16.9629C4.79413 16.8092 4.69682 16.6759 4.56586 16.5833C4.43491 16.4907 4.27753 16.444 4.11778 16.4502C3.95804 16.4565 3.80471 16.5154 3.68126 16.6179C3.5578 16.7205 3.47101 16.861 3.43415 17.0181C3.22927 17.8957 2.84195 18.3616 2.41854 18.6276C1.96976 18.9093 1.39415 19.0225 0.731707 19.0225C0.537646 19.0225 0.351534 19.1004 0.214312 19.2389C0.0770904 19.3774 0 19.5653 0 19.7613C0 19.9572 0.0770904 20.1451 0.214312 20.2836C0.351534 20.4222 0.537646 20.5 0.731707 20.5C1.53366 20.5 2.41951 20.367 3.19122 19.8824C3.60414 19.6229 3.95739 19.2774 4.22732 18.8689C5.74146 20.7068 8.52976 20.698 10 18.8403C11.4966 20.7305 14.3571 20.7068 15.8507 18.7714C16.678 19.8627 17.9678 20.5 19.2683 20.5C19.4624 20.5 19.6485 20.4222 19.7857 20.2836C19.9229 20.1451 20 19.9572 20 19.7613C20 19.5653 19.9229 19.3774 19.7857 19.2389C19.6485 19.1004 19.4624 19.0225 19.2683 19.0225C18.1141 19.0225 16.9424 18.2375 16.5522 16.9698C16.506 16.82 16.4137 16.6889 16.2887 16.5955C16.1638 16.5022 16.0126 16.4514 15.8571 16.4507C15.7017 16.4499 15.55 16.4991 15.4241 16.5912C15.2983 16.6834 15.2047 16.8135 15.1571 16.9629C14.3922 19.3663 11.44 19.3259 10.6937 17.0654C10.6449 16.9186 10.5517 16.7911 10.4272 16.7007C10.3027 16.6104 10.1533 16.5618 10 16.5618C9.8467 16.5618 9.69727 16.6104 9.5728 16.7007C9.44834 16.7911 9.35513 16.9186 9.30634 17.0654C8.56 19.3259 5.60781 19.3653 4.84293 16.9629Z" fill="#3461FD"/>
</svg>
