<svg width="24" height="25" viewBox="0 0 24 25" fill="none" xmlns="http://www.w3.org/2000/svg">
<path d="M12 2.5C6.48578 2.5 2 6.98578 2 12.5C2 18.0142 6.48578 22.5 12 22.5C17.5142 22.5 22 18.0142 22 12.5C22 6.98578 17.5142 2.5 12 2.5Z" fill="#2196F3"/>
<path d="M17.0682 10.3807L11.6515 15.7973C11.489 15.9598 11.2757 16.0416 11.0624 16.0416C10.8491 16.0416 10.6357 15.9598 10.4732 15.7973L7.76496 13.089C7.43902 12.7632 7.43902 12.2365 7.76496 11.9107C8.09074 11.5848 8.6173 11.5848 8.94324 11.9107L11.0624 14.0299L15.89 9.20246C16.2157 8.87652 16.7423 8.87652 17.0682 9.20246C17.394 9.52824 17.394 10.0548 17.0682 10.3807Z" fill="#FAFAFA"/>
</svg>
