<svg width="24" height="24" viewBox="0 0 24 24" fill="none" xmlns="http://www.w3.org/2000/svg">
<path fill-rule="evenodd" clip-rule="evenodd" d="M3 6.65143C3 4.6348 4.6348 3 6.65143 3H17.3486C19.3652 3 21 4.6348 21 6.65143V17.3486C21 19.3652 19.3652 21 17.3486 21H6.65143C4.6348 21 3 19.3652 3 17.3486V6.65143ZM6.65143 4.54286C5.4869 4.54286 4.54286 5.4869 4.54286 6.65143V17.3486C4.54286 18.5131 5.4869 19.4571 6.65143 19.4571H17.3486C18.5131 19.4571 19.4571 18.5131 19.4571 17.3486V6.65143C19.4571 5.4869 18.5131 4.54286 17.3486 4.54286H6.65143Z" fill="#BDBDBD"/>
</svg>
