<svg width="16" height="16" viewBox="0 0 16 16" fill="none" xmlns="http://www.w3.org/2000/svg">
<path d="M8.00016 15.1667C4.04683 15.1667 0.833496 11.9534 0.833496 8.00004C0.833496 4.04671 4.04683 0.833374 8.00016 0.833374C11.9535 0.833374 15.1668 4.04671 15.1668 8.00004C15.1668 11.9534 11.9535 15.1667 8.00016 15.1667ZM8.00016 1.83337C4.60016 1.83337 1.8335 4.60004 1.8335 8.00004C1.8335 11.4 4.60016 14.1667 8.00016 14.1667C11.4002 14.1667 14.1668 11.4 14.1668 8.00004C14.1668 4.60004 11.4002 1.83337 8.00016 1.83337Z" fill="#7C7C7C"/>
<path d="M6.11357 10.3867C5.9869 10.3867 5.86023 10.34 5.76023 10.24C5.5669 10.0467 5.5669 9.72666 5.76023 9.53332L9.53357 5.75999C9.7269 5.56666 10.0469 5.56666 10.2402 5.75999C10.4336 5.95332 10.4336 6.27332 10.2402 6.46666L6.4669 10.24C6.37357 10.34 6.24023 10.3867 6.11357 10.3867Z" fill="#7C7C7C"/>
<path d="M9.8869 10.3867C9.76023 10.3867 9.63357 10.34 9.53357 10.24L5.76023 6.46666C5.5669 6.27332 5.5669 5.95332 5.76023 5.75999C5.95357 5.56666 6.27357 5.56666 6.4669 5.75999L10.2402 9.53332C10.4336 9.72666 10.4336 10.0467 10.2402 10.24C10.1402 10.34 10.0136 10.3867 9.8869 10.3867Z" fill="#7C7C7C"/>
</svg>
