<svg width="20" height="21" viewBox="0 0 20 21" fill="none" xmlns="http://www.w3.org/2000/svg">
<path d="M18.9582 10.5C18.9582 15.4475 14.9473 19.4583 9.99984 19.4583C5.05234 19.4583 1.0415 15.4475 1.0415 10.5C1.0415 5.55246 5.05234 1.54163 9.99984 1.54163C14.9473 1.54163 18.9582 5.55246 18.9582 10.5Z" stroke="black" stroke-width="0.5" stroke-linecap="round" stroke-linejoin="round"/>
<path d="M7.0273 4.22415V12.9546C7.0273 13.2158 7.2373 13.4258 7.49814 13.4258H9.02772V17.3812C5.59897 16.8979 3.0498 13.9625 3.0498 10.5C3.04978 9.18424 3.42323 7.89553 4.12675 6.78368C4.83027 5.67182 5.83495 4.78251 7.02397 4.21915M12.9727 12.9546C12.9727 13.2158 12.7623 13.4258 12.5011 13.4258H10.9719V17.3812C14.4006 16.8979 16.9502 13.9625 16.9502 10.5C16.9502 9.18367 16.5763 7.89444 15.8722 6.78231C15.1681 5.67018 14.1626 4.78088 12.9727 4.2179V12.9546Z" stroke="#3461FD" stroke-width="0.5" stroke-linecap="round" stroke-linejoin="round"/>
<path d="M18.9582 10.5C18.9582 15.4475 14.9473 19.4583 9.99984 19.4583C5.05234 19.4583 1.0415 15.4475 1.0415 10.5C1.0415 5.55246 5.05234 1.54163 9.99984 1.54163C14.9473 1.54163 18.9582 5.55246 18.9582 10.5Z" stroke="#3461FD" stroke-width="0.5" stroke-linecap="round" stroke-linejoin="round"/>
<path d="M11.4477 1.65918V7.11293C11.4477 7.1439 11.4417 7.17457 11.4298 7.20318C11.418 7.2318 11.4006 7.25779 11.3787 7.27966C11.3568 7.30154 11.3308 7.31887 11.3021 7.33066C11.2735 7.34245 11.2428 7.34846 11.2119 7.34835H10.5327C10.1781 7.34835 9.99977 7.55876 9.99977 7.55876C9.99977 7.55876 9.82144 7.34835 9.46727 7.34835H8.78727C8.75631 7.34846 8.72562 7.34245 8.69699 7.33066C8.66835 7.31887 8.64233 7.30154 8.62042 7.27966C8.5985 7.25779 8.58112 7.2318 8.56929 7.20318C8.55745 7.17457 8.55138 7.1439 8.55144 7.11293V1.65918M9.99977 7.51251V13.3633M7.02686 10.4204C7.09977 10.4754 7.18477 10.5121 7.28102 10.5121L9.41727 10.5138C9.80394 10.5138 9.99977 11.1008 9.99977 11.1008C9.99977 11.1008 10.1956 10.5138 10.5823 10.5133L12.7185 10.5121C12.8148 10.5121 12.8998 10.4754 12.9727 10.4204" stroke="#3461FD" stroke-width="0.5" stroke-linecap="round" stroke-linejoin="round"/>
</svg>
