<svg width="16" height="16" viewBox="0 0 16 16" fill="none" xmlns="http://www.w3.org/2000/svg">
<path d="M12.0004 4.00004C11.5938 4.00004 11.2204 3.76671 11.0338 3.40671L10.5538 2.44004C10.2471 1.83337 9.4471 1.33337 8.7671 1.33337H7.24044C6.55377 1.33337 5.75377 1.83337 5.4471 2.44004L4.9671 3.40671C4.78044 3.76671 4.4071 4.00004 4.00044 4.00004C2.55377 4.00004 1.4071 5.22004 1.50044 6.66004L1.8471 12.1667C1.9271 13.54 2.6671 14.6667 4.5071 14.6667H11.4938C13.3338 14.6667 14.0671 13.54 14.1538 12.1667L14.5004 6.66004C14.5938 5.22004 13.4471 4.00004 12.0004 4.00004ZM7.00044 4.83337H9.00044C9.27377 4.83337 9.50044 5.06004 9.50044 5.33337C9.50044 5.60671 9.27377 5.83337 9.00044 5.83337H7.00044C6.7271 5.83337 6.50044 5.60671 6.50044 5.33337C6.50044 5.06004 6.7271 4.83337 7.00044 4.83337ZM8.00044 12.08C6.76044 12.08 5.7471 11.0734 5.7471 9.82671C5.7471 8.58004 6.75377 7.57337 8.00044 7.57337C9.2471 7.57337 10.2538 8.58004 10.2538 9.82671C10.2538 11.0734 9.24044 12.08 8.00044 12.08Z" fill="#292D32"/>
</svg>
