<svg width="16" height="16" viewBox="0 0 16 16" fill="none" xmlns="http://www.w3.org/2000/svg">
<path d="M5.33325 3.83301C5.05992 3.83301 4.83325 3.60634 4.83325 3.33301V1.33301C4.83325 1.05967 5.05992 0.833008 5.33325 0.833008C5.60659 0.833008 5.83325 1.05967 5.83325 1.33301V3.33301C5.83325 3.60634 5.60659 3.83301 5.33325 3.83301Z" fill="#292D32"/>
<path d="M10.6667 3.83301C10.3934 3.83301 10.1667 3.60634 10.1667 3.33301V1.33301C10.1667 1.05967 10.3934 0.833008 10.6667 0.833008C10.9401 0.833008 11.1667 1.05967 11.1667 1.33301V3.33301C11.1667 3.60634 10.9401 3.83301 10.6667 3.83301Z" fill="#292D32"/>
<path d="M5.66667 9.66692C5.58 9.66692 5.49333 9.64693 5.41333 9.6136C5.32666 9.58027 5.26001 9.53358 5.19334 9.47358C5.07334 9.34692 5 9.17359 5 9.00026C5 8.82692 5.07334 8.6536 5.19334 8.52693C5.26001 8.46693 5.33333 8.42025 5.41333 8.38691C5.57333 8.32025 5.76 8.32025 5.92 8.38691C6 8.42025 6.07333 8.46693 6.13999 8.52693C6.16666 8.56026 6.19999 8.59359 6.21999 8.62692C6.24666 8.66692 6.26668 8.70692 6.28001 8.74692C6.30001 8.78692 6.31334 8.82692 6.32001 8.86692C6.32667 8.91358 6.33333 8.96026 6.33333 9.00026C6.33333 9.17359 6.25999 9.34692 6.13999 9.47358C6.07333 9.53358 6 9.58027 5.92 9.6136C5.84 9.64693 5.75333 9.66692 5.66667 9.66692Z" fill="#292D32"/>
<path d="M7.99992 9.66679C7.91325 9.66679 7.82658 9.6468 7.74658 9.61347C7.65992 9.58013 7.59326 9.53345 7.52659 9.47345C7.40659 9.34679 7.33325 9.17346 7.33325 9.00012C7.33325 8.96012 7.33991 8.91345 7.34658 8.86678C7.35324 8.82678 7.36658 8.78679 7.38658 8.74679C7.39991 8.70679 7.41993 8.66679 7.44659 8.62679C7.47326 8.59346 7.49992 8.56013 7.52659 8.5268C7.77326 8.28013 8.21991 8.28013 8.47325 8.5268C8.49991 8.56013 8.52658 8.59346 8.55324 8.62679C8.57991 8.66679 8.59993 8.70679 8.61326 8.74679C8.63326 8.78679 8.64659 8.82678 8.65326 8.86678C8.65993 8.91345 8.66659 8.96012 8.66659 9.00012C8.66659 9.17346 8.59325 9.34679 8.47325 9.47345C8.34658 9.59345 8.17992 9.66679 7.99992 9.66679Z" fill="#292D32"/>
<path d="M5.66667 11.9999C5.58 11.9999 5.49333 11.9799 5.41333 11.9466C5.33333 11.9133 5.26001 11.8666 5.19334 11.8066C5.07334 11.6799 5 11.5066 5 11.3333C5 11.2933 5.00666 11.2466 5.01333 11.2066C5.01999 11.1599 5.03332 11.1199 5.05332 11.0799C5.06666 11.0399 5.08668 10.9999 5.11334 10.9599C5.13334 10.9266 5.16667 10.8933 5.19334 10.8599C5.26001 10.7999 5.33333 10.7533 5.41333 10.7199C5.57333 10.6533 5.76 10.6533 5.92 10.7199C6 10.7533 6.07333 10.7999 6.13999 10.8599C6.16666 10.8933 6.19999 10.9266 6.21999 10.9599C6.24666 10.9999 6.26668 11.0399 6.28001 11.0799C6.30001 11.1199 6.31334 11.1599 6.32001 11.2066C6.32667 11.2466 6.33333 11.2933 6.33333 11.3333C6.33333 11.5066 6.25999 11.6799 6.13999 11.8066C6.07333 11.8666 6 11.9133 5.92 11.9466C5.84 11.9799 5.75333 11.9999 5.66667 11.9999Z" fill="#292D32"/>
<path d="M13.6666 6.55957H2.33325C2.05992 6.55957 1.83325 6.3329 1.83325 6.05957C1.83325 5.78624 2.05992 5.55957 2.33325 5.55957H13.6666C13.9399 5.55957 14.1666 5.78624 14.1666 6.05957C14.1666 6.3329 13.9399 6.55957 13.6666 6.55957Z" fill="#292D32"/>
<path d="M10.5468 15.1871C10.2935 15.1871 10.0535 15.0937 9.88012 14.9204C9.67345 14.7137 9.58012 14.4137 9.62678 14.1004L9.75345 13.2004C9.78678 12.9671 9.92679 12.6871 10.0935 12.5204L12.4534 10.1604C12.7734 9.84039 13.0868 9.67372 13.4268 9.64039C13.8468 9.60039 14.2534 9.77372 14.6401 10.1604C15.0468 10.5671 15.5934 11.3937 14.6401 12.3471L12.2801 14.7071C12.1135 14.8737 11.8334 15.0137 11.6001 15.0471L10.7001 15.1737C10.6468 15.1804 10.6001 15.1871 10.5468 15.1871ZM13.5401 10.6337C13.5334 10.6337 13.5268 10.6337 13.5201 10.6337C13.4268 10.6404 13.3001 10.7271 13.1601 10.8671L10.8001 13.2271C10.7801 13.2471 10.7468 13.3137 10.7468 13.3404L10.6268 14.1737L11.4601 14.0537C11.4868 14.0471 11.5534 14.0137 11.5734 13.9937L13.9334 11.6337C14.2268 11.3404 14.2668 11.1937 13.9334 10.8604C13.8268 10.7604 13.6734 10.6337 13.5401 10.6337Z" fill="#292D32"/>
<path d="M13.9468 12.8336C13.9001 12.8336 13.8535 12.8269 13.8135 12.8136C12.9335 12.5669 12.2335 11.867 11.9868 10.987C11.9135 10.7203 12.0668 10.4469 12.3335 10.3669C12.6001 10.2936 12.8735 10.447 12.9535 10.7136C13.1068 11.2603 13.5401 11.6936 14.0868 11.8469C14.3535 11.9203 14.5068 12.2003 14.4335 12.467C14.3668 12.687 14.1668 12.8336 13.9468 12.8336Z" fill="#292D32"/>
<path d="M8 15.1663H5.33333C2.9 15.1663 1.5 13.7663 1.5 11.333V5.66634C1.5 3.23301 2.9 1.83301 5.33333 1.83301H10.6667C13.1 1.83301 14.5 3.23301 14.5 5.66634V7.99967C14.5 8.27301 14.2733 8.49967 14 8.49967C13.7267 8.49967 13.5 8.27301 13.5 7.99967V5.66634C13.5 3.75967 12.5733 2.83301 10.6667 2.83301H5.33333C3.42667 2.83301 2.5 3.75967 2.5 5.66634V11.333C2.5 13.2397 3.42667 14.1663 5.33333 14.1663H8C8.27333 14.1663 8.5 14.393 8.5 14.6663C8.5 14.9397 8.27333 15.1663 8 15.1663Z" fill="#292D32"/>
</svg>
