<svg width="24" height="24" viewBox="0 0 24 24" fill="none" xmlns="http://www.w3.org/2000/svg">
<path fill-rule="evenodd" clip-rule="evenodd" d="M6.65143 3C4.6348 3 3 4.6348 3 6.65143V17.3486C3 19.3652 4.6348 21 6.65143 21H17.3486C19.3652 21 21 19.3652 21 17.3486V6.65143C21 4.6348 19.3652 3 17.3486 3H6.65143ZM16.6143 10.0826C16.911 9.79356 16.9171 9.31873 16.6281 9.02206C16.339 8.72538 15.8642 8.71922 15.5675 9.00828L10.5142 13.932L8.45356 11.7569C8.16868 11.4562 7.69398 11.4434 7.39328 11.7283C7.09258 12.0131 7.07975 12.4878 7.36463 12.7885L9.94836 15.5158C10.0864 15.6615 10.2771 15.7458 10.4778 15.7498C10.6785 15.7539 10.8724 15.6773 11.0162 15.5372L16.6143 10.0826Z" fill="#0E0E15"/>
</svg>
