<svg width="20" height="20" viewBox="0 0 20 20" fill="none" xmlns="http://www.w3.org/2000/svg">
<path d="M6.875 4.79175C6.53333 4.79175 6.25 4.50841 6.25 4.16675V1.66675C6.25 1.32508 6.53333 1.04175 6.875 1.04175C7.21667 1.04175 7.5 1.32508 7.5 1.66675V4.16675C7.5 4.50841 7.21667 4.79175 6.875 4.79175Z" fill="white"/>
<path d="M13.125 4.79175C12.7833 4.79175 12.5 4.50841 12.5 4.16675V1.66675C12.5 1.32508 12.7833 1.04175 13.125 1.04175C13.4667 1.04175 13.75 1.32508 13.75 1.66675V4.16675C13.75 4.50841 13.4667 4.79175 13.125 4.79175Z" fill="white"/>
<path d="M10 11.7417C10.4333 11.7417 10.75 11.4834 10.75 11.0751C10.75 10.6584 10.4333 10.4167 10 10.4167C9.56667 10.4167 9.25 10.6584 9.25 11.0751C9.25 11.4834 9.56667 11.7417 10 11.7417Z" fill="white"/>
<path d="M9.99981 14.1667C10.5245 14.1667 10.9498 13.8197 10.9498 13.3917C10.9498 12.9637 10.5245 12.6167 9.99981 12.6167C9.47513 12.6167 9.0498 12.9637 9.0498 13.3917C9.0498 13.8197 9.47513 14.1667 9.99981 14.1667Z" fill="white"/>
<path d="M16.3085 3.75008C15.7585 3.34175 14.9668 3.73341 14.9668 4.42508V4.50841C14.9668 5.48341 14.2668 6.38341 13.2918 6.48342C12.1668 6.60008 11.2168 5.71675 11.2168 4.61675V3.75008C11.2168 3.29175 10.8418 2.91675 10.3835 2.91675H9.61683C9.1585 2.91675 8.7835 3.29175 8.7835 3.75008V4.61675C8.7835 5.27508 8.44183 5.85841 7.92516 6.18341C7.85016 6.23341 7.76683 6.27508 7.6835 6.31675C7.6085 6.35841 7.52516 6.39175 7.4335 6.41675C7.3335 6.45008 7.22516 6.47508 7.1085 6.48342C6.97516 6.50008 6.84183 6.50008 6.7085 6.48342C6.59183 6.47508 6.4835 6.45008 6.3835 6.41675C6.30016 6.39175 6.21683 6.35841 6.1335 6.31675C6.05016 6.27508 5.96683 6.23341 5.89183 6.18341C5.36683 5.81675 5.0335 5.18341 5.0335 4.50841V4.42508C5.0335 3.78341 4.35016 3.40008 3.8085 3.67508C3.80016 3.68341 3.79183 3.68341 3.7835 3.69175C3.75016 3.70841 3.72516 3.72508 3.69183 3.75008C3.66683 3.77508 3.6335 3.79175 3.6085 3.81675C3.37516 4.00008 3.16683 4.20841 2.99183 4.43341C2.90016 4.53341 2.82516 4.64175 2.7585 4.75008C2.75016 4.75841 2.74183 4.76675 2.7335 4.78341C2.6585 4.89175 2.59183 5.01675 2.5335 5.13341C2.51683 5.15008 2.5085 5.15841 2.5085 5.17508C2.4585 5.27508 2.4085 5.37508 2.37516 5.48341C2.35016 5.52508 2.34183 5.55841 2.32516 5.60008C2.27516 5.72508 2.24183 5.85008 2.2085 5.97508C2.17516 6.09175 2.15016 6.21675 2.1335 6.34175C2.11683 6.43341 2.1085 6.52508 2.10016 6.62508C2.09183 6.74175 2.0835 6.85841 2.0835 6.97508V14.2751C2.0835 16.5167 3.90016 18.3334 6.14183 18.3334H13.8585C16.1002 18.3334 17.9168 16.5167 17.9168 14.2751V6.97508C17.9168 5.65008 17.2835 4.49175 16.3085 3.75008ZM10.0002 15.2084C8.7085 15.2084 7.91683 14.5667 7.91683 13.5334C7.91683 12.9667 8.2085 12.4751 8.71683 12.1834C8.35016 11.9251 8.1085 11.5417 8.1085 11.0167C8.1085 9.93342 8.97516 9.37508 10.0002 9.37508C11.0252 9.37508 11.8835 9.93342 11.8835 11.0167C11.8835 11.5417 11.6502 11.9251 11.2752 12.1834C11.7918 12.4751 12.0835 12.9667 12.0835 13.5334C12.0835 14.5667 11.2835 15.2084 10.0002 15.2084Z" fill="white"/>
</svg>
