<svg width="18" height="18" viewBox="0 0 18 18" fill="none" xmlns="http://www.w3.org/2000/svg">
<path d="M9 14.0625C8.6925 14.0625 8.4375 13.8075 8.4375 13.5V12.75C8.4375 12.4425 8.6925 12.1875 9 12.1875C9.3075 12.1875 9.5625 12.4425 9.5625 12.75V13.5C9.5625 13.8075 9.3075 14.0625 9 14.0625Z" fill="#292D32"/>
<path d="M9 17.0625C8.6925 17.0625 8.4375 16.8075 8.4375 16.5V15.75C8.4375 15.4425 8.6925 15.1875 9 15.1875C9.3075 15.1875 9.5625 15.4425 9.5625 15.75V16.5C9.5625 16.8075 9.3075 17.0625 9 17.0625Z" fill="#292D32"/>
<path d="M1.50007 17.0625C1.45507 17.0625 1.41007 17.055 1.36507 17.0475C1.06507 16.9725 0.877573 16.665 0.952573 16.365L1.70257 13.365C1.77757 13.065 2.07757 12.8775 2.38507 12.9525C2.68507 13.0275 2.87257 13.335 2.79757 13.635L2.04757 16.635C1.98007 16.89 1.75507 17.0625 1.50007 17.0625Z" fill="#292D32"/>
<path d="M16.3145 16.877C16.0595 16.877 15.8345 16.7045 15.767 16.4495L15.017 13.4495C14.942 13.1495 15.122 12.842 15.4295 12.767C15.7295 12.692 16.037 12.872 16.112 13.1795L16.862 16.1795C16.937 16.4795 16.757 16.787 16.4495 16.862C16.4045 16.8695 16.3595 16.877 16.3145 16.877Z" fill="#292D32"/>
<path d="M14.3552 3.975C14.3552 4.2 14.1677 4.38 13.9502 4.38H4.14768C3.92268 4.38 3.74268 4.1925 3.74268 3.975C3.74268 3.75 3.93018 3.57 4.14768 3.57H4.70268L4.91268 2.5875C5.10768 1.6275 5.51268 0.75 7.13268 0.75H10.9502C12.5702 0.75 12.9827 1.6275 13.1777 2.58L13.3877 3.5625H13.9427C14.1677 3.5625 14.3552 3.75 14.3552 3.975Z" fill="#292D32"/>
<path d="M14.5876 7.05001C14.5051 6.15001 14.2651 5.19751 12.5176 5.19751H5.57261C3.82511 5.19751 3.59261 6.15751 3.50261 7.05001L3.19511 10.365C3.15761 10.7775 3.29261 11.19 3.57761 11.505C3.87011 11.82 4.27511 12 4.71011 12H5.73011C6.61511 12 6.78011 11.4975 6.89261 11.16L7.00511 10.83C7.13261 10.455 7.16261 10.365 7.65011 10.365H10.4401C10.9276 10.365 10.9426 10.4175 11.0851 10.83L11.1976 11.16C11.3026 11.4975 11.4751 12 12.3526 12H13.3726C13.8001 12 14.2126 11.82 14.5051 11.505C14.7901 11.1975 14.9251 10.7775 14.8876 10.365L14.5876 7.05001ZM7.41011 8.19001H5.78261C5.55761 8.19001 5.37761 8.00251 5.37761 7.78501C5.37761 7.56751 5.56511 7.38001 5.78261 7.38001H7.41761C7.64261 7.38001 7.82261 7.56751 7.82261 7.78501C7.82261 8.00251 7.63511 8.19001 7.41011 8.19001ZM12.3076 8.19001H10.6726C10.4476 8.19001 10.2676 8.00251 10.2676 7.78501C10.2676 7.56751 10.4551 7.38001 10.6726 7.38001H12.3076C12.5326 7.38001 12.7126 7.56751 12.7126 7.78501C12.7126 8.00251 12.5326 8.19001 12.3076 8.19001Z" fill="#292D32"/>
</svg>
