<svg width="24" height="24" viewBox="0 0 24 24" fill="none" xmlns="http://www.w3.org/2000/svg">
<path d="M7 20.6601C5.4798 19.7824 4.21741 18.52 3.33973 16.9998C2.46205 15.4796 1.99999 13.7552 2 11.9998C2.00001 10.2444 2.46209 8.51997 3.33979 6.99977C4.2175 5.47958 5.4799 4.2172 7.00011 3.33953C8.52032 2.46187 10.2448 1.99983 12.0002 1.99985C13.7555 1.99988 15.48 2.46198 17.0002 3.33969C18.5203 4.21741 19.7827 5.47983 20.6604 7.00005C21.538 8.52027 22 10.2447 22 12.0001L21.995 12.3241C21.939 14.0511 21.4365 15.7341 20.5364 17.2091C19.6363 18.6841 18.3693 19.9007 16.8591 20.7402C15.3489 21.5798 13.6469 22.0137 11.919 21.9997C10.1911 21.9856 8.49639 21.5241 7 20.6601ZM12 18.0001C12.2652 18.0001 12.5196 17.8948 12.7071 17.7072C12.8946 17.5197 13 17.2653 13 17.0001C13.7956 17.0001 14.5587 16.684 15.1213 16.1214C15.6839 15.5588 16 14.7958 16 14.0001C16 13.2045 15.6839 12.4414 15.1213 11.8788C14.5587 11.3162 13.7956 11.0001 13 11.0001V9.00011C13.1658 8.99092 13.3314 9.02238 13.4823 9.09174C13.6333 9.1611 13.765 9.26627 13.866 9.39811L13.934 9.49911C14.0708 9.71976 14.2881 9.87855 14.5399 9.9419C14.7916 10.0052 15.0582 9.9682 15.2831 9.83858C15.5081 9.70896 15.6738 9.49693 15.7453 9.24733C15.8167 8.99773 15.7883 8.73013 15.666 8.50111C15.4108 8.05844 15.0467 7.68831 14.6083 7.4258C14.1699 7.16329 13.6717 7.01711 13.161 7.00111H13C13.0002 6.756 12.9104 6.51936 12.7476 6.33611C12.5848 6.15287 12.3604 6.03579 12.117 6.00711L12 6.00011C11.7348 6.00011 11.4804 6.10546 11.2929 6.293C11.1054 6.48054 11 6.73489 11 7.00011L10.824 7.00511C10.0444 7.05017 9.31309 7.39744 8.78546 7.97314C8.25784 8.54883 7.97549 9.30758 7.9984 10.0881C8.02132 10.8687 8.34769 11.6096 8.90818 12.1533C9.46867 12.6971 10.2191 13.0009 11 13.0001V15.0001C10.642 15.0121 10.329 14.8601 10.134 14.6021L10.066 14.5011C9.92918 14.2805 9.71191 14.1217 9.46014 14.0583C9.20836 13.995 8.94182 14.032 8.71686 14.1616C8.49191 14.2913 8.32619 14.5033 8.25474 14.7529C8.18329 15.0025 8.21171 15.2701 8.334 15.4991C8.58911 15.942 8.95314 16.3123 9.39154 16.575C9.82994 16.8377 10.3282 16.984 10.839 17.0001H11C11 17.2653 11.1054 17.5197 11.2929 17.7072C11.4804 17.8948 11.7348 18.0001 12 18.0001ZM11 11.0001C10.7348 11.0001 10.4804 10.8948 10.2929 10.7072C10.1054 10.5197 10 10.2653 10 10.0001C10 9.73489 10.1054 9.48054 10.2929 9.293C10.4804 9.10546 10.7348 9.00011 11 9.00011V11.0001ZM13 15.0001V13.0001C13.2652 13.0001 13.5196 13.1055 13.7071 13.293C13.8946 13.4805 14 13.7349 14 14.0001C14 14.2653 13.8946 14.5197 13.7071 14.7072C13.5196 14.8948 13.2652 15.0001 13 15.0001Z" fill="#F0E922"/>
</svg>
