<svg width="18" height="18" viewBox="0 0 18 18" fill="none" xmlns="http://www.w3.org/2000/svg">
<path d="M4.15548 14.64C3.69798 14.64 3.27048 14.4825 2.96298 14.19C2.57298 13.8225 2.38548 13.2675 2.45298 12.6675L2.73048 10.2375C2.78298 9.78004 3.06048 9.17254 3.38298 8.84254L9.54048 2.32504C11.078 0.697537 12.683 0.652537 14.3105 2.19004C15.938 3.72754 15.983 5.33254 14.4455 6.96004L8.28798 13.4775C7.97298 13.815 7.38798 14.13 6.93048 14.205L4.51548 14.6175C4.38798 14.625 4.27548 14.64 4.15548 14.64ZM11.948 2.18254C11.3705 2.18254 10.868 2.54254 10.358 3.08254L4.20048 9.60754C4.05048 9.76504 3.87798 10.14 3.84798 10.3575L3.57048 12.7875C3.54048 13.035 3.60048 13.2375 3.73548 13.365C3.87048 13.4925 4.07298 13.5375 4.32048 13.5L6.73548 13.0875C6.95298 13.05 7.31298 12.855 7.46298 12.6975L13.6205 6.18004C14.5505 5.19004 14.888 4.27504 13.5305 3.00004C12.9305 2.42254 12.413 2.18254 11.948 2.18254Z" fill="#0E0E15"/>
<path d="M13.0053 8.21251C12.9903 8.21251 12.9678 8.21251 12.9528 8.21251C10.6128 7.98001 8.73033 6.20251 8.37033 3.87751C8.32533 3.57001 8.53533 3.28501 8.84283 3.23251C9.15033 3.18751 9.43533 3.39751 9.48783 3.70501C9.77283 5.52001 11.2428 6.91501 13.0728 7.09501C13.3803 7.12501 13.6053 7.40251 13.5753 7.71001C13.5378 7.99501 13.2903 8.21251 13.0053 8.21251Z" fill="#0E0E15"/>
<path d="M15.75 17.0625H2.25C1.9425 17.0625 1.6875 16.8075 1.6875 16.5C1.6875 16.1925 1.9425 15.9375 2.25 15.9375H15.75C16.0575 15.9375 16.3125 16.1925 16.3125 16.5C16.3125 16.8075 16.0575 17.0625 15.75 17.0625Z" fill="#0E0E15"/>
</svg>
