<svg width="20" height="21" viewBox="0 0 20 21" fill="none" xmlns="http://www.w3.org/2000/svg">
<path d="M15.0502 19.6666H16.4335C17.1335 19.6666 17.7085 19.1249 17.7918 18.4416L19.1668 4.70825H15.0002V1.33325H13.3585V4.70825H9.21683L9.46683 6.65825C10.8918 7.04992 12.2252 7.75825 13.0252 8.54159C14.2252 9.72492 15.0502 10.9499 15.0502 12.9499V19.6666ZM0.833496 18.8333V17.9999H13.3585V18.8333C13.3585 19.2833 12.9835 19.6666 12.5002 19.6666H1.66683C1.2085 19.6666 0.833496 19.2833 0.833496 18.8333ZM13.3585 12.9999C13.3585 6.33325 0.833496 6.33325 0.833496 12.9999H13.3585ZM0.833496 14.6666H13.3335V16.3333H0.833496V14.6666Z" fill="#3461FD"/>
</svg>
