<svg width="16" height="16" viewBox="0 0 16 16" fill="none" xmlns="http://www.w3.org/2000/svg">
<path d="M7.02669 14.6268C6.87336 14.6268 6.72669 14.5602 6.62669 14.4268L5.95335 13.5268C5.81335 13.3402 5.6267 13.2335 5.4267 13.2202C5.2267 13.2068 5.02668 13.3002 4.86668 13.4668C3.90001 14.5002 3.16669 14.4135 2.81335 14.2802C2.45335 14.1402 1.84668 13.6802 1.84668 12.2002V4.6935C1.84668 1.7335 2.70001 0.833496 5.49335 0.833496H10.5267C13.32 0.833496 14.1734 1.7335 14.1734 4.6935V7.53349C14.1734 7.80682 13.9467 8.03349 13.6734 8.03349C13.4 8.03349 13.1734 7.80682 13.1734 7.53349V4.6935C13.1734 2.28684 12.7534 1.8335 10.5267 1.8335H5.49335C3.26668 1.8335 2.84668 2.28684 2.84668 4.6935V12.2002C2.84668 12.9002 3.02001 13.2868 3.18001 13.3468C3.30001 13.3935 3.6267 13.3268 4.13336 12.7868C4.50003 12.4002 4.98002 12.1935 5.48002 12.2202C5.97335 12.2468 6.44002 12.5068 6.75336 12.9268L7.43335 13.8268C7.60002 14.0468 7.55335 14.3602 7.33335 14.5268C7.23335 14.6002 7.12669 14.6268 7.02669 14.6268Z" fill="#292D32"/>
<path d="M12.1333 14.7667C10.68 14.7667 9.5 13.5867 9.5 12.1333C9.5 10.68 10.68 9.5 12.1333 9.5C13.5867 9.5 14.7667 10.68 14.7667 12.1333C14.7667 13.5867 13.5867 14.7667 12.1333 14.7667ZM12.1333 10.5C11.2333 10.5 10.5 11.2333 10.5 12.1333C10.5 13.0333 11.2333 13.7667 12.1333 13.7667C13.0333 13.7667 13.7667 13.0333 13.7667 12.1333C13.7667 11.2333 13.0333 10.5 12.1333 10.5Z" fill="#292D32"/>
<path d="M14.6667 15.1665C14.54 15.1665 14.4134 15.1198 14.3134 15.0198L13.6467 14.3531C13.4534 14.1598 13.4534 13.8398 13.6467 13.6465C13.84 13.4531 14.16 13.4531 14.3534 13.6465L15.02 14.3131C15.2134 14.5065 15.2134 14.8265 15.02 15.0198C14.92 15.1198 14.7934 15.1665 14.6667 15.1665Z" fill="#292D32"/>
<path d="M10.6666 5.1665H5.33325C5.05992 5.1665 4.83325 4.93984 4.83325 4.6665C4.83325 4.39317 5.05992 4.1665 5.33325 4.1665H10.6666C10.9399 4.1665 11.1666 4.39317 11.1666 4.6665C11.1666 4.93984 10.9399 5.1665 10.6666 5.1665Z" fill="#292D32"/>
<path d="M10 7.8335H6C5.72667 7.8335 5.5 7.60683 5.5 7.3335C5.5 7.06016 5.72667 6.8335 6 6.8335H10C10.2733 6.8335 10.5 7.06016 10.5 7.3335C10.5 7.60683 10.2733 7.8335 10 7.8335Z" fill="#292D32"/>
</svg>
