<svg width="16" height="16" viewBox="0 0 16 16" fill="none" xmlns="http://www.w3.org/2000/svg">
<path d="M10.6467 15.167H5.3134C3.0334 15.167 2.14673 14.2803 2.14673 12.0003V6.66699C2.14673 6.39366 2.3734 6.16699 2.64673 6.16699H13.3134C13.5867 6.16699 13.8134 6.39366 13.8134 6.66699V12.0003C13.8134 14.2803 12.9267 15.167 10.6467 15.167ZM3.14673 7.16699V12.0003C3.14673 13.7203 3.5934 14.167 5.3134 14.167H10.6467C12.3667 14.167 12.8134 13.7203 12.8134 12.0003V7.16699H3.14673Z" fill="#0E0E15"/>
<path d="M13.0001 7.16634H3.00008C1.83341 7.16634 1.16675 6.49967 1.16675 5.33301V4.66634C1.16675 3.49967 1.83341 2.83301 3.00008 2.83301H13.0001C14.1334 2.83301 14.8334 3.53301 14.8334 4.66634V5.33301C14.8334 6.46634 14.1334 7.16634 13.0001 7.16634ZM3.00008 3.83301C2.39341 3.83301 2.16675 4.05967 2.16675 4.66634V5.33301C2.16675 5.93967 2.39341 6.16634 3.00008 6.16634H13.0001C13.5867 6.16634 13.8334 5.91967 13.8334 5.33301V4.66634C13.8334 4.07967 13.5867 3.83301 13.0001 3.83301H3.00008Z" fill="#0E0E15"/>
<path d="M7.75998 3.83358H4.07998C3.93998 3.83358 3.80665 3.77358 3.71331 3.67358C3.30665 3.22691 3.31998 2.54025 3.74665 2.11358L4.69331 1.16691C5.13331 0.726914 5.85998 0.726914 6.29998 1.16691L8.11331 2.98025C8.25331 3.12025 8.29998 3.34025 8.21998 3.52691C8.14665 3.71358 7.96665 3.83358 7.75998 3.83358ZM4.44665 2.83358H6.55998L5.59331 1.87358C5.53998 1.82025 5.45331 1.82025 5.39998 1.87358L4.45331 2.82025C4.45331 2.82691 4.44665 2.82691 4.44665 2.83358Z" fill="#0E0E15"/>
<path d="M11.9134 3.83358H8.23339C8.03339 3.83358 7.84672 3.71358 7.77339 3.52691C7.69339 3.34025 7.74006 3.12691 7.88006 2.98025L9.69339 1.16691C10.1334 0.726914 10.8601 0.726914 11.3001 1.16691L12.2467 2.11358C12.6734 2.54025 12.6934 3.22691 12.2801 3.67358C12.1867 3.77358 12.0534 3.83358 11.9134 3.83358ZM9.44672 2.83358H11.5601C11.5534 2.82691 11.5534 2.82691 11.5467 2.82025L10.6001 1.87358C10.5467 1.82025 10.4601 1.82025 10.4067 1.87358L9.44672 2.83358Z" fill="#0E0E15"/>
<path d="M6.62663 11.267C6.43996 11.267 6.24663 11.2203 6.07329 11.127C5.69329 10.9203 5.45996 10.527 5.45996 10.1003V6.66699C5.45996 6.39366 5.68663 6.16699 5.95996 6.16699H9.98663C10.26 6.16699 10.4866 6.39366 10.4866 6.66699V10.087C10.4866 10.5203 10.2533 10.9137 9.8733 11.1137C9.4933 11.3203 9.0333 11.2937 8.6733 11.0537L8.07996 10.6537C8.02663 10.6137 7.95329 10.6137 7.8933 10.6537L7.26663 11.067C7.07329 11.2003 6.84663 11.267 6.62663 11.267ZM6.45996 7.16699V10.0937C6.45996 10.1803 6.51329 10.2203 6.54663 10.2403C6.57996 10.2603 6.64663 10.2803 6.71996 10.2337L7.34663 9.82033C7.73996 9.56033 8.24663 9.56033 8.63329 9.82033L9.22663 10.2203C9.29996 10.267 9.36663 10.247 9.39996 10.227C9.4333 10.207 9.48663 10.167 9.48663 10.0803V7.16033H6.45996V7.16699Z" fill="#0E0E15"/>
</svg>
