<svg width="16" height="16" viewBox="0 0 16 16" fill="none" xmlns="http://www.w3.org/2000/svg">
<path d="M12.4067 4.45338C12.1333 4.45338 11.9067 4.22671 11.9067 3.95338V2.94671C11.9067 2.54671 11.58 2.21338 11.1733 2.21338H2.55333C2.15333 2.21338 1.81999 2.54005 1.81999 2.94671V3.95338C1.81999 4.22671 1.59333 4.45338 1.31999 4.45338C1.04666 4.45338 0.82666 4.22671 0.82666 3.95338V2.94671C0.82666 1.99338 1.60666 1.21338 2.55999 1.21338H11.1733C12.1267 1.21338 12.9067 1.98671 12.9067 2.94671V3.95338C12.9067 4.22671 12.68 4.45338 12.4067 4.45338Z" fill="#292D32"/>
<path d="M6.8667 12.5667C6.59337 12.5667 6.3667 12.34 6.3667 12.0667V2.21338C6.3667 1.94005 6.59337 1.71338 6.8667 1.71338C7.14003 1.71338 7.3667 1.94005 7.3667 2.21338V12.0667C7.3667 12.3467 7.14003 12.5667 6.8667 12.5667Z" fill="#292D32"/>
<path d="M8.3201 12.5669H4.6001C4.32676 12.5669 4.1001 12.3402 4.1001 12.0669C4.1001 11.7936 4.32676 11.5669 4.6001 11.5669H8.3201C8.59343 11.5669 8.8201 11.7936 8.8201 12.0669C8.8201 12.3402 8.59343 12.5669 8.3201 12.5669Z" fill="#292D32"/>
<path d="M14.6735 8.80005C14.4001 8.80005 14.1735 8.57339 14.1735 8.30005V7.76672C14.1735 7.56005 14.0001 7.38672 13.7935 7.38672H9.12012C8.84678 7.38672 8.62012 7.16005 8.62012 6.88672C8.62012 6.61339 8.84678 6.38672 9.12012 6.38672H13.7935C14.5535 6.38672 15.1735 7.00672 15.1735 7.76672V8.30005C15.1735 8.58005 14.9535 8.80005 14.6735 8.80005Z" fill="#292D32"/>
<path d="M10.72 14.7866C10.4466 14.7866 10.22 14.5599 10.22 14.2866V7.24658C10.22 6.97325 10.4466 6.74658 10.72 6.74658C10.9933 6.74658 11.22 6.97325 11.22 7.24658V14.2866C11.22 14.5599 10.9933 14.7866 10.72 14.7866Z" fill="#292D32"/>
<path d="M12.1465 14.7866H9.29321C9.01988 14.7866 8.79321 14.56 8.79321 14.2866C8.79321 14.0133 9.01988 13.7866 9.29321 13.7866H12.1465C12.4199 13.7866 12.6465 14.0133 12.6465 14.2866C12.6465 14.56 12.4199 14.7866 12.1465 14.7866Z" fill="#292D32"/>
</svg>
