<svg width="20" height="21" viewBox="0 0 20 21" fill="none" xmlns="http://www.w3.org/2000/svg">
<path d="M14.5582 7.72504H15.8332V19.6667H14.5582V11C13.8916 10.8667 13.2666 10.6167 12.6749 10.2584C12.0832 9.90004 11.5832 9.48337 11.1582 9.00004L10.6416 11.5584L12.4999 13.3917V19.6667H10.8332V14.6667L8.96656 12.8334L7.40823 19.6667H5.60823C5.60823 19.6667 8.21656 6.51671 8.24156 6.40837C8.33323 6.00837 8.51656 5.70004 8.8249 5.50004C9.13323 5.27504 9.44156 5.16671 9.75823 5.16671C10.0832 5.16671 10.3832 5.24171 10.6582 5.39171C10.9416 5.53337 11.1582 5.74171 11.3166 6.00837L12.1999 7.36671C12.4416 7.81671 12.7666 8.20837 13.1749 8.52504C13.5832 8.84171 14.0499 9.08337 14.5582 9.25004V7.72504ZM7.1249 5.40837L6.16656 5.20837C5.69156 5.08337 5.25823 5.18337 4.86656 5.45004C4.48323 5.71671 4.2499 6.08337 4.16656 6.56671L3.49156 9.88337C3.46656 10.125 3.51656 10.3417 3.6499 10.5417C3.78323 10.7417 3.95823 10.85 4.16656 10.8834L6.00823 11.2417L7.1249 5.40837ZM10.8332 1.33337C9.91656 1.33337 9.16656 2.08337 9.16656 3.00004C9.16656 3.91671 9.91656 4.66671 10.8332 4.66671C11.7499 4.66671 12.4999 3.92504 12.4999 3.00004C12.4999 2.07504 11.7582 1.33337 10.8332 1.33337Z" fill="#3461FD"/>
</svg>
