<svg width="24" height="25" viewBox="0 0 24 25" fill="none" xmlns="http://www.w3.org/2000/svg">
<path d="M6 5.5H18C18.2652 5.5 18.5196 5.60536 18.7071 5.79289C18.8946 5.98043 19 6.23478 19 6.5C19 6.76522 18.8946 7.01957 18.7071 7.20711C18.5196 7.39464 18.2652 7.5 18 7.5H6C5.73478 7.5 5.48043 7.39464 5.29289 7.20711C5.10536 7.01957 5 6.76522 5 6.5C5 6.23478 5.10536 5.98043 5.29289 5.79289C5.48043 5.60536 5.73478 5.5 6 5.5ZM21 2.5V4.5H3V2.5H21ZM15 8.5H17V22.5H15V8.5ZM7 8.5H9V22.5H7V8.5ZM11 8.5H13V22.5H11V8.5Z" fill="#3461FD"/>
</svg>
