<svg width="16" height="16" viewBox="0 0 16 16" fill="none" xmlns="http://www.w3.org/2000/svg">
<path d="M9.99992 15.1667H5.99992C2.37992 15.1667 0.833252 13.62 0.833252 10V6.00004C0.833252 2.38004 2.37992 0.833374 5.99992 0.833374H9.99992C13.6199 0.833374 15.1666 2.38004 15.1666 6.00004V8.66671C15.1666 8.94004 14.9399 9.16671 14.6666 9.16671C14.3933 9.16671 14.1666 8.94004 14.1666 8.66671V6.00004C14.1666 2.92671 13.0733 1.83337 9.99992 1.83337H5.99992C2.92659 1.83337 1.83325 2.92671 1.83325 6.00004V10C1.83325 13.0734 2.92659 14.1667 5.99992 14.1667H9.99992C10.2733 14.1667 10.4999 14.3934 10.4999 14.6667C10.4999 14.94 10.2733 15.1667 9.99992 15.1667Z" fill="#292D32"/>
<path d="M12.6666 15.1666C12.3933 15.1666 12.1666 14.94 12.1666 14.6666V11.8733L11.6866 12.3533C11.4933 12.5466 11.1733 12.5466 10.98 12.3533C10.7866 12.16 10.7866 11.84 10.98 11.6466L12.3133 10.3133C12.4533 10.1733 12.6733 10.1266 12.86 10.2066C13.0466 10.2866 13.1666 10.4666 13.1666 10.6666V14.6666C13.1666 14.94 12.94 15.1666 12.6666 15.1666Z" fill="#292D32"/>
<path d="M13.9999 12.5C13.8732 12.5 13.7465 12.4533 13.6465 12.3533L12.3132 11.02C12.1199 10.8267 12.1199 10.5067 12.3132 10.3133C12.5065 10.12 12.8265 10.12 13.0199 10.3133L14.3532 11.6467C14.5465 11.84 14.5465 12.16 14.3532 12.3533C14.2532 12.4533 14.1265 12.5 13.9999 12.5Z" fill="#292D32"/>
<path d="M5.93324 10.9934C5.91324 10.9934 5.89324 10.9934 5.87991 10.9934C5.60658 10.96 5.40658 10.7134 5.43991 10.44L6.13324 4.12002C6.16658 3.84669 6.41324 3.64669 6.68658 3.68002C6.95991 3.71336 7.15991 3.96002 7.12658 4.23336L6.42658 10.5467C6.39991 10.8 6.17991 10.9934 5.93324 10.9934Z" fill="#292D32"/>
<path d="M8.03334 10.9933C8.01334 10.9933 7.99334 10.9933 7.98001 10.9933C7.70668 10.9599 7.50668 10.7133 7.54001 10.4399L8.24001 4.12662C8.27334 3.85328 8.52001 3.65328 8.79334 3.68662C9.06668 3.71995 9.26668 3.96662 9.23334 4.23995L8.53334 10.5533C8.50668 10.7999 8.28668 10.9933 8.03334 10.9933Z" fill="#292D32"/>
<path d="M10.6666 6.78003H4.35327C4.07994 6.78003 3.85327 6.55336 3.85327 6.28003C3.85327 6.0067 4.07994 5.78003 4.35327 5.78003H10.6666C10.9399 5.78003 11.1666 6.0067 11.1666 6.28003C11.1666 6.55336 10.9399 6.78003 10.6666 6.78003Z" fill="#292D32"/>
<path d="M10.3133 8.88672H4C3.72667 8.88672 3.5 8.66005 3.5 8.38672C3.5 8.11339 3.72667 7.88672 4 7.88672H10.3133C10.5867 7.88672 10.8133 8.11339 10.8133 8.38672C10.8133 8.66005 10.5933 8.88672 10.3133 8.88672Z" fill="#292D32"/>
</svg>
