<svg width="24" height="24" viewBox="0 0 24 24" fill="none" xmlns="http://www.w3.org/2000/svg">
<path d="M18.8 9.91003C17.67 9.91003 16.66 10.46 16.03 11.3C15.4 10.46 14.39 9.91003 13.26 9.91003C11.35 9.91003 9.80005 11.47 9.80005 13.39C9.80005 14.13 9.92005 14.82 10.12 15.45C11.1 18.56 14.14 20.43 15.64 20.94C15.85 21.01 16.2 21.01 16.41 20.94C17.91 20.43 20.95 18.57 21.93 15.45C22.14 14.81 22.25 14.13 22.25 13.39C22.26 11.47 20.71 9.91003 18.8 9.91003Z" fill="#292D32"/>
<path d="M20.75 8.33998C20.75 8.56998 20.52 8.71998 20.3 8.65998C18.95 8.30998 17.47 8.59998 16.35 9.39998C16.13 9.55998 15.83 9.55998 15.62 9.39998C14.83 8.81998 13.87 8.49998 12.86 8.49998C10.28 8.49998 8.18 10.61 8.18 13.21C8.18 16.03 9.53 18.14 10.89 19.55C10.96 19.62 10.9 19.74 10.81 19.7C8.08 18.77 2 14.91 2 8.33998C2 5.43998 4.33 3.09998 7.21 3.09998C8.92 3.09998 10.43 3.91998 11.38 5.18998C12.34 3.91998 13.85 3.09998 15.55 3.09998C18.42 3.09998 20.75 5.43998 20.75 8.33998Z" fill="#292D32"/>
</svg>
