<svg width="16" height="16" viewBox="0 0 16 16" fill="none" xmlns="http://www.w3.org/2000/svg">
<path d="M7.37997 12.1133C7.26664 12.1133 7.15997 12.0933 7.04664 12.0533C6.67997 11.9133 6.43997 11.5733 6.43997 11.18V8.98H5.78664C5.4133 8.98 5.08664 8.76666 4.9333 8.43333C4.77997 8.09333 4.83997 7.71333 5.08664 7.43333L7.92664 4.20666C8.18664 3.91333 8.58664 3.81333 8.9533 3.95333C9.31997 4.09333 9.55997 4.43333 9.55997 4.82666V7.02666H10.22C10.5933 7.02666 10.92 7.24 11.0733 7.57333C11.2266 7.91333 11.1666 8.29333 10.92 8.57333L8.07997 11.8C7.8933 12 7.63997 12.1133 7.37997 12.1133ZM5.9333 7.98H6.93997C7.2133 7.98 7.43997 8.20666 7.43997 8.48V11L10.0666 8.02H9.05997C8.78664 8.02 8.55997 7.79333 8.55997 7.52V5L5.9333 7.98Z" fill="#292D32"/>
<path d="M7.9799 15.1667C4.03323 15.1667 0.813232 11.9534 0.813232 8.00004C0.813232 4.04671 4.03323 0.833374 7.9799 0.833374C11.9266 0.833374 15.1466 4.04671 15.1466 8.00004C15.1466 11.9534 11.9332 15.1667 7.9799 15.1667ZM7.9799 1.83337C4.5799 1.83337 1.81323 4.60004 1.81323 8.00004C1.81323 11.4 4.5799 14.1667 7.9799 14.1667C11.3799 14.1667 14.1466 11.4 14.1466 8.00004C14.1466 4.60004 11.3799 1.83337 7.9799 1.83337Z" fill="#292D32"/>
</svg>
