<svg width="28" height="28" viewBox="0 0 28 28" fill="none" xmlns="http://www.w3.org/2000/svg">
<rect width="28" height="28" rx="14" fill="#3461FD"/>
<path d="M10.7687 9.2313C10.8808 9.17015 10.9999 9.26422 10.9999 9.39193V17.85C10.9999 17.998 10.8986 18.1229 10.7687 18.1938L9.2999 19.0313C8.2749 19.6188 7.43115 19.1313 7.43115 17.9438V11.8625C7.43115 11.4688 7.7124 10.9813 8.0624 10.7813L10.7687 9.2313Z" fill="white"/>
<path d="M15.0969 10.7623C15.2672 10.8467 15.375 11.0203 15.375 11.2104V19.0162C15.375 19.3847 14.99 19.6266 14.658 19.4667L12.3767 18.3676C12.2037 18.2843 12.0938 18.1092 12.0938 17.9172V10.0806C12.0938 9.70974 12.4833 9.46795 12.8156 9.63254L15.0969 10.7623Z" fill="white"/>
<path d="M19.75 11.0563V17.1375C19.75 17.5313 19.4687 18.0188 19.1187 18.2188L17.2174 19.3085C16.884 19.4995 16.4688 19.2589 16.4688 18.8747V11.0654C16.4688 10.8858 16.565 10.7201 16.7209 10.6311L17.8813 9.96879C18.9063 9.38129 19.75 9.86879 19.75 11.0563Z" fill="white"/>
</svg>
