<svg width="20" height="20" viewBox="0 0 20 20" fill="none" xmlns="http://www.w3.org/2000/svg">
<path d="M14.1668 9.58333C14.1668 10.7339 15.0996 11.6667 16.2502 11.6667C17.4008 11.6667 18.3335 10.7339 18.3335 9.58333C18.3335 8.43274 17.4008 7.5 16.2502 7.5C15.0996 7.5 14.1668 8.43274 14.1668 9.58333Z" fill="#4B5563"/>
<path d="M8.33333 9.58333C8.33333 10.7339 9.26607 11.6667 10.4167 11.6667C11.5673 11.6667 12.5 10.7339 12.5 9.58333C12.5 8.43274 11.5673 7.5 10.4167 7.5C9.26607 7.5 8.33333 8.43274 8.33333 9.58333Z" fill="#4B5563"/>
<path d="M2.49984 9.58333C2.49984 10.7339 3.43258 11.6667 4.58317 11.6667C5.73376 11.6667 6.6665 10.7339 6.6665 9.58333C6.6665 8.43274 5.73376 7.5 4.58317 7.5C3.43258 7.5 2.49984 8.43274 2.49984 9.58333Z" fill="#4B5563"/>
</svg>
