<svg width="25" height="24" viewBox="0 0 25 24" fill="none" xmlns="http://www.w3.org/2000/svg">
<path d="M16.3099 20.18C16.0499 20.18 15.7799 20.17 15.4899 20.14C14.9699 20.1 14.38 20 13.77 19.85L12.09 19.45C7.47995 18.36 5.96995 15.92 7.04995 11.32L8.02995 7.13001C8.24995 6.18002 8.50995 5.41002 8.82995 4.77002C10.5499 1.22002 13.8399 1.54001 16.1799 2.09001L17.8499 2.48001C20.1899 3.03001 21.6699 3.90001 22.4999 5.23002C23.32 6.56002 23.4499 8.27001 22.9 10.61L21.9199 14.79C21.0599 18.45 19.2699 20.18 16.3099 20.18ZM13.6199 3.25001C11.9499 3.25001 10.8899 3.94002 10.1799 5.42002C9.91995 5.96002 9.68995 6.63001 9.48995 7.47001L8.50995 11.66C7.61995 15.44 8.64995 17.09 12.43 17.99L14.1099 18.39C14.6499 18.52 15.1599 18.6 15.6199 18.64C18.3399 18.91 19.6899 17.72 20.45 14.45L21.4299 10.27C21.8799 8.34002 21.8199 6.99002 21.2199 6.02001C20.6199 5.05001 19.4399 4.39002 17.4999 3.94002L15.8299 3.55001C14.9999 3.35001 14.2599 3.25001 13.6199 3.25001Z" fill="#0E0E15"/>
<path d="M8.83005 22.25C6.26005 22.25 4.62005 20.71 3.57005 17.46L2.29005 13.5101C0.870052 9.11005 2.14005 6.63005 6.52005 5.21005L8.10005 4.70005C8.62005 4.54005 9.01005 4.43005 9.36005 4.37005C9.65005 4.31005 9.93005 4.42005 10.1001 4.65005C10.2701 4.88005 10.3001 5.18005 10.1801 5.44005C9.92005 5.97005 9.69005 6.64005 9.50005 7.48005L8.52005 11.6701C7.63005 15.4501 8.66005 17.1001 12.4401 18.0001L14.1201 18.4001C14.6601 18.5301 15.1701 18.6101 15.6301 18.6501C15.9501 18.68 16.2101 18.9 16.3001 19.21C16.3801 19.5201 16.2601 19.8401 16.0001 20.0201C15.3401 20.4701 14.5101 20.85 13.4601 21.1901L11.8801 21.71C10.7301 22.07 9.73005 22.25 8.83005 22.25ZM8.28005 6.22005L6.99005 6.64005C3.42005 7.79005 2.57005 9.47005 3.72005 13.0501L5.00005 17.0001C6.16005 20.5701 7.84005 21.4301 11.4101 20.2801L12.9901 19.7601C13.0501 19.7401 13.1001 19.7201 13.1601 19.7001L12.1001 19.4501C7.49005 18.3601 5.98005 15.92 7.06005 11.3201L8.04005 7.13005C8.11005 6.81005 8.19005 6.50005 8.28005 6.22005Z" fill="#0E0E15"/>
<path d="M17.99 10.51C17.93 10.51 17.87 10.5 17.8 10.49L12.95 9.26002C12.55 9.16002 12.31 8.75002 12.41 8.35002C12.51 7.95002 12.92 7.71002 13.32 7.81002L18.17 9.04002C18.57 9.14002 18.81 9.55002 18.71 9.95002C18.63 10.28 18.32 10.51 17.99 10.51Z" fill="#0E0E15"/>
<path d="M15.06 13.89C15 13.89 14.94 13.88 14.87 13.87L11.96 13.13C11.56 13.03 11.32 12.62 11.42 12.22C11.52 11.82 11.93 11.58 12.33 11.68L15.24 12.42C15.64 12.52 15.88 12.93 15.78 13.33C15.7 13.67 15.4 13.89 15.06 13.89Z" fill="#0E0E15"/>
</svg>
