<svg width="20" height="20" viewBox="0 0 20 20" fill="none" xmlns="http://www.w3.org/2000/svg">
<path d="M4.16683 18.3333V16.6666H9.16683V13.3333H7.50016C6.34738 13.3333 5.36488 12.9269 4.55266 12.1141C3.74044 11.3013 3.33405 10.3188 3.3335 9.16663C3.3335 8.33329 3.56266 7.56607 4.021 6.86496C4.47933 6.16385 5.09739 5.65329 5.87516 5.33329C6.00016 4.29163 6.45516 3.42024 7.24016 2.71913C8.02516 2.01802 8.94516 1.66718 10.0002 1.66663C11.0552 1.66607 11.9754 2.0169 12.761 2.71913C13.5466 3.42135 14.0013 4.29274 14.1252 5.33329C14.9029 5.65274 15.521 6.16329 15.9793 6.86496C16.4377 7.56663 16.6668 8.33385 16.6668 9.16663C16.6668 10.3194 16.2604 11.3022 15.4477 12.115C14.6349 12.9277 13.6524 13.3338 12.5002 13.3333H10.8335V16.6666H15.8335V18.3333H4.16683Z" fill="#3461FD"/>
</svg>
