<svg width="32" height="32" viewBox="0 0 32 32" fill="none" xmlns="http://www.w3.org/2000/svg">
<rect width="32" height="32" rx="16" fill="#F8D000"/>
<path d="M21.3333 17.8333C20.32 17.8333 19.5 17.0133 19.5 16C19.5 14.9866 20.32 14.1666 21.3333 14.1666C22.3467 14.1666 23.1667 14.9866 23.1667 16C23.1667 17.0133 22.3467 17.8333 21.3333 17.8333ZM21.3333 15.1666C20.8733 15.1666 20.5 15.54 20.5 16C20.5 16.46 20.8733 16.8333 21.3333 16.8333C21.7933 16.8333 22.1667 16.46 22.1667 16C22.1667 15.54 21.7933 15.1666 21.3333 15.1666Z" fill="#292D32"/>
<path d="M21.3333 12.5C20.32 12.5 19.5 11.68 19.5 10.6667C19.5 9.65337 20.32 8.83337 21.3333 8.83337C22.3467 8.83337 23.1667 9.65337 23.1667 10.6667C23.1667 11.68 22.3467 12.5 21.3333 12.5ZM21.3333 9.83337C20.8733 9.83337 20.5 10.2067 20.5 10.6667C20.5 11.1267 20.8733 11.5 21.3333 11.5C21.7933 11.5 22.1667 11.1267 22.1667 10.6667C22.1667 10.2067 21.7933 9.83337 21.3333 9.83337Z" fill="#292D32"/>
<path d="M21.3333 23.1667C20.32 23.1667 19.5 22.3467 19.5 21.3333C19.5 20.32 20.32 19.5 21.3333 19.5C22.3467 19.5 23.1667 20.32 23.1667 21.3333C23.1667 22.3467 22.3467 23.1667 21.3333 23.1667ZM21.3333 20.5C20.8733 20.5 20.5 20.8733 20.5 21.3333C20.5 21.7933 20.8733 22.1667 21.3333 22.1667C21.7933 22.1667 22.1667 21.7933 22.1667 21.3333C22.1667 20.8733 21.7933 20.5 21.3333 20.5Z" fill="#292D32"/>
<path d="M10.6668 17.8333C9.6535 17.8333 8.8335 17.0133 8.8335 16C8.8335 14.9866 9.6535 14.1666 10.6668 14.1666C11.6802 14.1666 12.5002 14.9866 12.5002 16C12.5002 17.0133 11.6802 17.8333 10.6668 17.8333ZM10.6668 15.1666C10.2068 15.1666 9.8335 15.54 9.8335 16C9.8335 16.46 10.2068 16.8333 10.6668 16.8333C11.1268 16.8333 11.5002 16.46 11.5002 16C11.5002 15.54 11.1268 15.1666 10.6668 15.1666Z" fill="#292D32"/>
<path d="M20 16.5H12C11.7267 16.5 11.5 16.2733 11.5 16C11.5 15.7267 11.7267 15.5 12 15.5H20C20.2733 15.5 20.5 15.7267 20.5 16C20.5 16.2733 20.2733 16.5 20 16.5Z" fill="#292D32"/>
<path d="M20.0002 21.8333H17.3335C15.7202 21.8333 14.8335 20.9466 14.8335 19.3333V12.6666C14.8335 11.0533 15.7202 10.1666 17.3335 10.1666H20.0002C20.2735 10.1666 20.5002 10.3933 20.5002 10.6666C20.5002 10.94 20.2735 11.1666 20.0002 11.1666H17.3335C16.2802 11.1666 15.8335 11.6133 15.8335 12.6666V19.3333C15.8335 20.3866 16.2802 20.8333 17.3335 20.8333H20.0002C20.2735 20.8333 20.5002 21.06 20.5002 21.3333C20.5002 21.6066 20.2735 21.8333 20.0002 21.8333Z" fill="#292D32"/>
</svg>
