<svg width="40" height="40" viewBox="0 0 40 40" fill="none" xmlns="http://www.w3.org/2000/svg">
<g clip-path="url(#clip0_28_928)">
<path d="M31.4453 36.09L28.0323 34.9859C27.8264 34.9193 27.6043 34.9221 27.4001 34.9938C27.1959 35.0655 27.0208 35.2022 26.9017 35.3829L24.9294 38.3782C24.4788 39.0617 23.4412 38.9341 23.1706 38.1617L20.0941 29.4059L17.1488 21.02L26.6623 17.6788L30.1312 27.5529L32.6835 34.8212C32.9541 35.5935 32.2235 36.3417 31.4453 36.09Z" fill="#079CFF"/>
<path d="M30.1312 27.5523C29.6698 27.8266 29.1432 27.9719 28.6065 27.9729C28.4565 27.9729 28.3041 27.9612 28.1547 27.9376L26.6065 27.7023L25.8835 29.1876C25.6392 29.6946 25.2562 30.122 24.779 30.4203C24.3018 30.7185 23.7498 30.8755 23.187 30.8729C22.5489 30.8738 21.9275 30.6692 21.4147 30.2894L20.1541 29.3612L20.0947 29.4053L17.1488 21.0194L26.6623 17.6782L30.1312 27.5523Z" fill="#005EEE"/>
<path d="M22.8512 21.0194L19.8394 29.5929L16.83 38.1618C16.5594 38.9341 15.5212 39.0617 15.0712 38.3782L13.0983 35.3829C12.9791 35.2023 12.804 35.0656 12.5999 34.9939C12.3957 34.9222 12.1736 34.9194 11.9677 34.9859L8.55473 36.09C7.7765 36.3418 7.04591 35.5929 7.3165 34.8206L9.86238 27.5718L13.3377 17.6782L22.8512 21.0194Z" fill="#079CFF"/>
<path d="M22.8511 21.0194L19.8394 29.5929L18.8235 30.3412C18.3102 30.7209 17.6884 30.9255 17.05 30.9247C16.487 30.9274 15.9349 30.7703 15.4576 30.4718C14.9803 30.1733 14.5975 29.7456 14.3535 29.2382L13.67 27.8312L12.0352 28.0812C11.8858 28.1047 11.7323 28.1165 11.58 28.1165C10.9652 28.1147 10.3657 27.9246 9.8623 27.5718L13.3376 17.6782L22.8511 21.0194Z" fill="#005EEE"/>
<path d="M33.7835 14.7694L32.6765 15.9441C32.4574 16.1765 32.3184 16.4728 32.2799 16.7898C32.2414 17.1068 32.3053 17.4278 32.4623 17.7059L33.2994 19.1876C33.4028 19.3706 33.4646 19.5741 33.4805 19.7837C33.4964 19.9932 33.466 20.2037 33.3914 20.4002C33.3169 20.5966 33.2 20.7743 33.0491 20.9206C32.8982 21.0668 32.7169 21.1781 32.5182 21.2465L30.9918 21.7723C30.69 21.8764 30.4295 22.0742 30.2482 22.3369C30.0669 22.5995 29.9743 22.9133 29.9841 23.2323L30.0359 24.9335C30.0422 25.1434 30.0023 25.3521 29.9191 25.5449C29.8358 25.7377 29.7112 25.9098 29.5541 26.0491C29.397 26.1884 29.2111 26.2914 29.0098 26.3509C28.8084 26.4105 28.5964 26.425 28.3888 26.3935L26.7935 26.1494C26.4778 26.1012 26.155 26.1554 25.8723 26.3039C25.5896 26.4524 25.3618 26.6874 25.2223 26.9747L24.4788 28.5041C24.3868 28.693 24.2544 28.8594 24.091 28.9914C23.9276 29.1235 23.7371 29.218 23.5331 29.2683C23.3291 29.3186 23.1165 29.3234 22.9105 29.2824C22.7044 29.2414 22.5098 29.1557 22.3406 29.0312L21.0412 28.0741C20.7841 27.8848 20.4733 27.7827 20.1541 27.7827C19.8349 27.7827 19.5241 27.8848 19.2671 28.0741L17.8965 29.0835C17.7273 29.208 17.5329 29.2938 17.3269 29.3347C17.1209 29.3757 16.9084 29.3709 16.7045 29.3206C16.5006 29.2703 16.3102 29.1758 16.1469 29.0437C15.9836 28.9117 15.8513 28.7453 15.7594 28.5565L15.0535 27.1047C14.914 26.8177 14.6862 26.5828 14.4037 26.4344C14.1211 26.286 13.7985 26.2319 13.4829 26.28L11.8 26.5365C11.5924 26.5681 11.3804 26.5538 11.179 26.4944C10.9776 26.4349 10.7917 26.332 10.6345 26.1927C10.4773 26.0534 10.3527 25.8813 10.2695 25.6885C10.1863 25.4957 10.1465 25.2869 10.1529 25.0771L10.2018 23.4629C10.2114 23.1439 10.1187 22.8302 9.9373 22.5677C9.7559 22.3051 9.49528 22.1074 9.19352 22.0035L7.5847 21.4494C7.38611 21.3809 7.20502 21.2695 7.05423 21.1232C6.90345 20.9769 6.78666 20.7993 6.71213 20.6029C6.6376 20.4064 6.60716 20.196 6.62295 19.9866C6.63874 19.7771 6.70039 19.5736 6.80352 19.3906L7.59705 17.9847C7.91882 17.4141 7.83235 16.7012 7.38294 16.2241L6.21646 14.9853C6.07253 14.8324 5.96397 14.6497 5.89848 14.4502C5.83299 14.2507 5.81216 14.0393 5.83747 13.8308C5.86278 13.6224 5.93362 13.422 6.04496 13.244C6.1563 13.066 6.30542 12.9146 6.48176 12.8006L7.83823 11.9241C8.10641 11.751 8.31217 11.4965 8.42541 11.1981C8.53866 10.8996 8.55346 10.5728 8.46764 10.2653L8.00941 8.62587C7.95301 8.42362 7.94177 8.21144 7.97649 8.00437C8.0112 7.79729 8.09101 7.60037 8.21027 7.42757C8.32954 7.25476 8.48534 7.11029 8.66664 7.00438C8.84794 6.89847 9.0503 6.83371 9.25941 6.8147L10.8676 6.66882C11.1853 6.64007 11.4855 6.51052 11.7244 6.29908C11.9632 6.08764 12.1282 5.80538 12.1953 5.49352L12.5523 3.82881C12.5962 3.62344 12.6848 3.43023 12.8117 3.26289C12.9385 3.09555 13.1007 2.95818 13.2866 2.8605C13.4725 2.76283 13.6777 2.70725 13.8874 2.69771C14.0972 2.68817 14.3066 2.72489 14.5006 2.80529L15.9918 3.4247C16.2867 3.54719 16.6132 3.57204 16.9233 3.49562C17.2335 3.4192 17.511 3.24552 17.7153 2.99999L18.8035 1.69234C18.9379 1.53087 19.1061 1.40093 19.2963 1.31176C19.4865 1.22259 19.694 1.17636 19.9041 1.17636C20.1142 1.17636 20.3217 1.22259 20.5119 1.31176C20.7021 1.40093 20.8703 1.53087 21.0047 1.69234L22.0382 2.93234C22.2424 3.17749 22.5196 3.35094 22.8294 3.42735C23.1392 3.50375 23.4652 3.47912 23.76 3.35705L25.3329 2.70529C25.5269 2.62457 25.7363 2.58755 25.9462 2.59687C26.1561 2.60618 26.3614 2.6616 26.5475 2.75918C26.7335 2.85677 26.8958 2.99413 27.0228 3.1615C27.1499 3.32888 27.2385 3.52217 27.2823 3.72764L27.6206 5.30646C27.6874 5.61854 27.8523 5.90106 28.0912 6.11273C28.3301 6.3244 28.6304 6.45412 28.9482 6.48293L30.6429 6.63587C30.8521 6.65477 31.0546 6.71947 31.236 6.82539C31.4175 6.93131 31.5733 7.07584 31.6926 7.24875C31.8119 7.42165 31.8917 7.61869 31.9263 7.82588C31.9609 8.03307 31.9495 8.24535 31.8929 8.44764L31.4588 10.0023C31.373 10.3098 31.3878 10.6367 31.501 10.9351C31.6143 11.2336 31.82 11.488 32.0882 11.6612L33.5176 12.5847C33.694 12.6986 33.8432 12.85 33.9546 13.028C34.066 13.206 34.1369 13.4063 34.1622 13.6148C34.1876 13.8232 34.1668 14.0347 34.1014 14.2342C34.0359 14.4338 33.9274 14.6165 33.7835 14.7694Z" fill="#FFD80C"/>
<path d="M29.0741 15.4424C29.0741 20.4465 25.0164 24.5029 20.0123 24.5029C15.0082 24.5029 10.9529 20.4465 10.9529 15.4424C10.9529 10.4382 15.0082 6.38235 20.0117 6.38235C25.0152 6.38235 29.0741 10.4382 29.0741 15.4424Z" fill="#FFBE00"/>
<path d="M22.2412 20.0494L21.953 18.3724H21.483V14.9141L21.2748 14.8841C21.1661 14.8682 21.062 14.8297 20.969 14.7713C20.876 14.7128 20.7963 14.6357 20.7348 14.5447V15.3612H17.4465V14.78C17.3583 14.8324 17.2606 14.8682 17.1565 14.8841L15.4683 15.1288C14.8201 15.2229 14.5612 16.0206 15.0312 16.4776L16.2512 17.6676C16.4377 17.85 16.5236 18.1118 16.4795 18.3682L16.1901 20.0494C16.0795 20.6953 16.7577 21.1876 17.3383 20.8829L18.8465 20.09C18.9602 20.0304 19.0867 19.9992 19.2151 19.9992C19.3434 19.9992 19.4699 20.0304 19.5836 20.09L21.0924 20.8829C21.6736 21.1888 22.3512 20.6947 22.2412 20.0494Z" fill="#FFA300"/>
<path d="M27.0389 9.72118C25.4236 8.40115 23.4008 7.68152 21.3148 7.68471C16.3106 7.68471 12.2542 11.7406 12.2542 16.7447C12.2542 18.9141 13.0177 20.9065 14.2906 22.4659C13.2465 21.6175 12.4049 20.5467 11.8274 19.3316C11.2499 18.1164 10.9509 16.7877 10.9524 15.4424C10.9524 10.4382 15.0083 6.38235 20.0124 6.38235C22.8459 6.38235 25.3771 7.68294 27.0389 9.72118Z" fill="#FFA300"/>
<path d="M22.9771 16.7235C22.7912 16.9059 22.7053 17.1677 22.7494 17.4241L23.0382 19.1053C23.1494 19.7512 22.4706 20.2447 21.89 19.9388L20.3812 19.1459C20.2675 19.0862 20.141 19.055 20.0126 19.055C19.8843 19.055 19.7578 19.0862 19.6441 19.1459L18.1359 19.9388C17.5553 20.2435 16.8771 19.7512 16.9876 19.1053L17.2765 17.4241C17.3212 17.1677 17.2353 16.9065 17.0488 16.7241L15.8288 15.5335C15.3582 15.0765 15.6176 14.2782 16.2665 14.1847L17.9535 13.94C18.0804 13.9216 18.2009 13.8727 18.3046 13.7974C18.4083 13.722 18.4921 13.6226 18.5488 13.5077L19.3041 11.9788C19.5929 11.3906 20.4318 11.3906 20.7218 11.9777L21.4771 13.5071C21.5918 13.7406 21.8147 13.9024 22.0724 13.94L23.76 14.1847C24.4082 14.2788 24.6677 15.0765 24.1976 15.5335L22.9771 16.7235Z" fill="#FFD80C"/>
</g>
<defs>
<clipPath id="clip0_28_928">
<rect width="40" height="40" fill="white"/>
</clipPath>
</defs>
</svg>
