<svg width="14" height="15" viewBox="0 0 14 15" fill="none" xmlns="http://www.w3.org/2000/svg">
<path d="M12 7.5C12.4183 7.71698 12.7751 8.03603 13.0373 8.42759C13.2995 8.81916 13.4587 9.27057 13.5 9.74C13.5 11.67 10.59 13.24 7 13.24C3.41 13.24 0.5 11.68 0.5 9.75C0.539699 9.27881 0.698081 8.82536 0.960374 8.43192C1.22267 8.03848 1.58033 7.71787 2 7.5" stroke="#3461FD" stroke-linecap="round" stroke-linejoin="round"/>
<path d="M4.07979 2.75C2.07979 5.25 6.07979 6.25 4.07979 8.75M6.99979 1.75C4.99979 4.25 8.99979 7.25 6.99979 9.75M9.91979 2.75C7.91979 5.25 11.9198 6.25 9.91979 8.75" stroke="#3461FD" stroke-linecap="round" stroke-linejoin="round"/>
</svg>
