<svg width="20" height="21" viewBox="0 0 20 21" fill="none" xmlns="http://www.w3.org/2000/svg">
<path d="M18.8923 16.9H12.3999V18.5H18.9587C19.1032 18.5069 19.2458 18.464 19.3625 18.3784C19.4792 18.2929 19.563 18.1699 19.5999 18.03V17.642C19.5999 17.642 19.5951 16.9 18.8923 16.9ZM17.9943 16.584C18.4205 16.5834 18.829 16.4136 19.1301 16.1119C19.4311 15.8102 19.6001 15.4014 19.5999 14.9752C19.5999 14.0844 18.8799 13.366 17.9943 13.366C17.7834 13.3664 17.5746 13.4083 17.38 13.4894C17.1853 13.5705 17.0085 13.6891 16.8596 13.8386C16.7108 13.988 16.5929 14.1653 16.5127 14.3603C16.4324 14.5554 16.3914 14.7643 16.3919 14.9752C16.3919 15.8628 17.1099 16.584 17.9943 16.584ZM14.6127 16.5C15.4551 16.5 16.1327 15.9064 16.1327 15.0652C16.1323 14.2256 15.4523 13.7852 14.6163 13.7788L12.3999 14.0596V16.5H14.6127ZM7.4091 6.0732C8.3927 6.0732 9.1883 5.2732 9.1883 4.2864C9.1883 3.2996 8.3927 2.5 7.4091 2.5C6.4263 2.5 5.6295 3.2996 5.6295 4.2864C5.6295 5.2732 6.4263 6.0732 7.4091 6.0732ZM5.5923 11.8556L5.5763 11.8324L4.7699 9.9548L4.7687 13.7H7.1787L7.7051 13.14L6.2775 12.5904C5.9391 12.4632 5.6987 12.1752 5.5923 11.8556ZM6.1031 11.6872C6.1811 11.8624 6.3255 12.0044 6.5071 12.0696L9.2579 13.0892C9.34172 13.126 9.43197 13.1458 9.52349 13.1477C9.615 13.1495 9.70598 13.1333 9.79121 13.0999C9.87645 13.0666 9.95426 13.0167 10.0202 12.9532C10.0861 12.8898 10.1389 12.8139 10.1755 12.73C10.2498 12.5598 10.2538 12.3671 10.1866 12.194C10.1195 12.0209 9.98668 11.8813 9.8171 11.8056L7.2791 10.8472L6.4951 8.9668L7.0063 8.7764L7.6707 10.3876L9.5999 11.1028V9.134L10.6239 9.7432L11.1343 12.3144C11.1637 12.4014 11.21 12.4817 11.2707 12.5507C11.3313 12.6196 11.405 12.6759 11.4875 12.7162C11.57 12.7566 11.6596 12.7801 11.7513 12.7856C11.843 12.791 11.9348 12.7783 12.0215 12.748C12.1961 12.6859 12.3392 12.5574 12.4197 12.3905C12.5002 12.2236 12.5116 12.0317 12.4515 11.8564L11.8795 9.38C11.8419 9.24296 11.7635 9.12061 11.6547 9.0292C11.3615 8.7044 9.8787 7.0464 9.7731 6.9356C9.6183 6.7804 9.2643 6.5 8.5955 6.5H6.1955C4.8315 6.5 4.5691 7.892 4.8479 8.6L6.1031 11.6872ZM11.9999 14.1H1.1867C0.793102 14.1 0.399902 14.322 0.399902 14.8104V18.5H11.9999V14.1Z" fill="#3461FD"/>
</svg>
