<svg width="16" height="16" viewBox="0 0 16 16" fill="none" xmlns="http://www.w3.org/2000/svg">
<g clip-path="url(#clip0_27_809)">
<g clip-path="url(#clip1_27_809)">
<path d="M15.5521 5.80299L10.6578 5.09184L8.46903 0.656868C8.27759 0.268931 7.72256 0.268743 7.53097 0.656868L5.34222 5.09184L0.448 5.80299C0.0199692 5.86521 -0.151937 6.39296 0.158125 6.69515L3.69959 10.1473L2.86353 15.0217C2.84703 15.1179 2.85777 15.2168 2.89454 15.3072C2.93131 15.3976 2.99265 15.4759 3.0716 15.5333C3.15056 15.5907 3.244 15.6248 3.34134 15.6318C3.43868 15.6388 3.53605 15.6185 3.62244 15.5731L8 13.2717C12.7658 15.7772 12.4385 15.6332 12.6209 15.6332C12.9433 15.6332 13.1915 15.3426 13.1365 15.0217L12.3004 10.1473L15.8419 6.69515C16.1517 6.39318 15.9804 5.86527 15.5521 5.80299Z" fill="#F7AC16"/>
<path d="M8.00003 0.365295C7.90243 0.365301 7.80677 0.392608 7.72388 0.444132C7.64098 0.495656 7.57415 0.569341 7.53094 0.656858L5.34219 5.09183L0.448 5.80298C0.0199692 5.8652 -0.151937 6.39295 0.158125 6.69514L3.69959 10.1473L2.86353 15.0217C2.84703 15.1179 2.85777 15.2168 2.89454 15.3072C2.93131 15.3976 2.99265 15.4759 3.0716 15.5333C3.15056 15.5906 3.244 15.6248 3.34134 15.6318C3.43868 15.6388 3.53605 15.6185 3.62244 15.5731L8 13.2717H8.00003V0.365295Z" fill="#F2D422"/>
<path d="M0.448 5.80298C0.0199692 5.8652 -0.151937 6.39295 0.158125 6.69514L3.69959 10.1473L2.86353 15.0217C2.84703 15.1179 2.85777 15.2168 2.89454 15.3072C2.93131 15.3976 2.99265 15.4759 3.0716 15.5333C3.15056 15.5906 3.244 15.6248 3.34134 15.6318C3.43868 15.6388 3.53605 15.6185 3.62244 15.5731L8 13.2717C12.7658 15.7772 12.4385 15.6332 12.6209 15.6332C12.7314 15.6332 12.839 15.5982 12.9284 15.5333L5.34219 5.0918L0.448 5.80298Z" fill="#F7AC16"/>
<path d="M5.57994 9.54519C1.78638 5.84734 1.94944 6.04553 1.89853 5.85375C1.87781 5.77672 1.87356 5.68709 1.89609 5.59256L0.448 5.80297C0.0199692 5.86518 -0.151937 6.39293 0.158125 6.69512L3.69959 10.1472L2.86353 15.0217C2.84703 15.1179 2.85777 15.2168 2.89454 15.3072C2.93131 15.3976 2.99265 15.4759 3.0716 15.5333C3.15056 15.5907 3.244 15.6248 3.34134 15.6318C3.43868 15.6389 3.53605 15.6185 3.62244 15.5731L4.90953 14.8964C4.84391 14.8374 4.7943 14.7627 4.76534 14.6793C4.73637 14.596 4.72899 14.5066 4.74388 14.4196L5.57994 9.54519Z" fill="#F48B19"/>
<path d="M0.158151 6.69515L3.69962 10.1473L2.86356 15.0217C2.84706 15.1179 2.8578 15.2168 2.89457 15.3072C2.93134 15.3976 2.99267 15.4759 3.07163 15.5333C3.15059 15.5907 3.24402 15.6248 3.34137 15.6318C3.43871 15.6389 3.53608 15.6185 3.62246 15.5731L8.00003 13.2717C12.7658 15.7772 12.4385 15.6332 12.6209 15.6332C12.9433 15.6332 13.1915 15.3426 13.1365 15.0217L12.3005 10.1473L0.0257448 6.15897C-0.0354114 6.37818 0.0258073 6.56622 0.158151 6.69515Z" fill="#F2D422"/>
<path d="M0.158151 6.69515L3.69962 10.1473L2.86356 15.0217C2.84706 15.1179 2.8578 15.2168 2.89457 15.3072C2.93134 15.3976 2.99267 15.4759 3.07163 15.5333C3.15059 15.5907 3.24402 15.6248 3.34137 15.6318C3.43871 15.6389 3.53608 15.6185 3.62246 15.5731L4.90956 14.8964C4.84393 14.8374 4.79433 14.7627 4.76536 14.6793C4.73639 14.596 4.72901 14.5066 4.7439 14.4196L5.57996 9.54519L3.14628 7.1729L0.0257448 6.15897C-0.0354114 6.37818 0.0258073 6.56622 0.158151 6.69515Z" fill="#EFB616"/>
<path d="M2.86349 15.0217C2.84699 15.1179 2.85773 15.2168 2.8945 15.3072C2.93127 15.3976 2.9926 15.4759 3.07156 15.5333C3.15052 15.5907 3.24395 15.6248 3.3413 15.6318C3.43864 15.6389 3.53601 15.6185 3.62239 15.5731L7.99996 13.2717C12.7658 15.7772 12.4384 15.6332 12.6209 15.6332C12.9432 15.6332 13.1915 15.3426 13.1364 15.0217L12.3004 10.1473L15.8419 6.69515C15.9118 6.62702 15.9612 6.5407 15.9846 6.44596C16.008 6.35121 16.0044 6.25182 15.9742 6.159L3.69955 10.1473L2.86349 15.0217Z" fill="#F7AC16"/>
<path d="M2.86349 15.0217C2.84699 15.1179 2.85773 15.2168 2.8945 15.3072C2.93127 15.3976 2.9926 15.4759 3.07156 15.5333C3.15052 15.5906 3.24395 15.6248 3.3413 15.6318C3.43864 15.6388 3.53601 15.6185 3.62239 15.5731L4.90949 14.8964C4.84386 14.8374 4.79426 14.7627 4.76529 14.6793C4.73632 14.596 4.72894 14.5066 4.74383 14.4196L5.57989 9.54517L5.57305 9.53851L3.69955 10.1473L2.86349 15.0217Z" fill="#F48B19"/>
<path d="M3.6225 15.5731L8.00003 13.2717C12.7658 15.7772 12.4385 15.6332 12.6209 15.6332C12.9433 15.6332 13.1915 15.3426 13.1365 15.0217L12.3005 10.1473L15.842 6.69514C16.1517 6.39317 15.9804 5.86527 15.5521 5.80298L10.6578 5.09183L3.07166 15.5333C3.15062 15.5907 3.24406 15.6248 3.3414 15.6318C3.43874 15.6388 3.53611 15.6185 3.6225 15.5731Z" fill="#F2D422"/>
<path d="M15.9743 6.15897L8.00003 8.74997L3.07166 15.5333C3.15061 15.5907 3.24404 15.6248 3.34138 15.6318C3.43872 15.6389 3.53609 15.6185 3.62247 15.5731L8.00003 13.2717C12.7658 15.7772 12.4385 15.6332 12.6209 15.6332C12.9433 15.6332 13.1915 15.3426 13.1365 15.0217L12.3005 10.1473L15.842 6.69515C15.9118 6.62702 15.9613 6.5407 15.9847 6.44595C16.0081 6.3512 16.0045 6.25179 15.9743 6.15897Z" fill="#F7AC16"/>
<path d="M12.3005 10.1473L8.00003 8.74994L3.07166 15.5333C3.15061 15.5906 3.24404 15.6248 3.34138 15.6318C3.43872 15.6388 3.53609 15.6185 3.62247 15.5731L8.00003 13.2717C12.7658 15.7772 12.4385 15.6332 12.6209 15.6332C12.9433 15.6332 13.1915 15.3426 13.1365 15.0217L12.3005 10.1473Z" fill="#F2D422"/>
<path d="M3.07166 15.5333C3.15061 15.5906 3.24404 15.6248 3.34138 15.6318C3.43872 15.6388 3.53609 15.6185 3.62247 15.5731L8.00003 13.2717C12.7658 15.7772 12.4385 15.6332 12.6209 15.6332C12.7314 15.6332 12.839 15.5982 12.9284 15.5333L8.00003 8.74994L3.07166 15.5333Z" fill="#F7AC16"/>
<path d="M8.00006 8.75L8.00003 8.74994L3.07166 15.5333C3.15061 15.5906 3.24404 15.6248 3.34138 15.6318C3.43872 15.6388 3.53609 15.6185 3.62247 15.5731L8.00003 13.2717H8.00006V8.75Z" fill="#F2D422"/>
<path d="M5.01062 12.8645L3.07166 15.5333C3.15061 15.5907 3.24404 15.6248 3.34138 15.6318C3.43872 15.6388 3.53609 15.6185 3.62247 15.5731L4.90956 14.8964C4.84394 14.8374 4.79433 14.7627 4.76536 14.6793C4.7364 14.596 4.72902 14.5066 4.74391 14.4196L5.01062 12.8645Z" fill="#EFB616"/>
</g>
</g>
<defs>
<clipPath id="clip0_27_809">
<rect width="16" height="16" fill="white"/>
</clipPath>
<clipPath id="clip1_27_809">
<rect width="16" height="16" fill="white"/>
</clipPath>
</defs>
</svg>
