<svg width="24" height="24" viewBox="0 0 24 24" fill="none" xmlns="http://www.w3.org/2000/svg">
<path d="M11.5 21.75C5.85 21.75 1.25 17.15 1.25 11.5C1.25 5.85 5.85 1.25 11.5 1.25C17.15 1.25 21.75 5.85 21.75 11.5C21.75 17.15 17.15 21.75 11.5 21.75ZM11.5 2.75C6.67 2.75 2.75 6.68 2.75 11.5C2.75 16.32 6.67 20.25 11.5 20.25C16.33 20.25 20.25 16.32 20.25 11.5C20.25 6.68 16.33 2.75 11.5 2.75Z" fill="#292D32"/>
<path d="M22.7167 24C22.3906 24 22.0644 23.8799 21.8069 23.6226L18.3734 20.1916C17.8755 19.6941 17.8755 18.8706 18.3734 18.3731C18.8712 17.8756 19.6953 17.8756 20.1931 18.3731L23.6266 21.8041C24.1245 22.3016 24.1245 23.1251 23.6266 23.6226C23.3691 23.8799 23.0429 24 22.7167 24Z" fill="#292D32"/>
</svg>
