<svg width="16" height="16" viewBox="0 0 16 16" fill="none" xmlns="http://www.w3.org/2000/svg">
<path d="M5.45347 11.1802C5.44014 11.1802 5.42014 11.1802 5.40681 11.1802C4.76014 11.1202 4.15348 10.8202 3.70015 10.3402C2.63348 9.22023 2.63348 7.40023 3.70015 6.28023L5.16015 4.74689C5.68015 4.20022 6.38015 3.89355 7.12681 3.89355C7.87348 3.89355 8.57348 4.19355 9.09348 4.74689C10.1601 5.86689 10.1601 7.68688 9.09348 8.80688L8.36681 9.57355C8.17348 9.77355 7.86015 9.78023 7.66015 9.59357C7.46015 9.40023 7.45348 9.08688 7.64015 8.88688L8.36681 8.12022C9.07348 7.38022 9.07348 6.17356 8.36681 5.44023C7.70681 4.74689 6.54682 4.74689 5.88015 5.44023L4.42015 6.97355C3.71348 7.71355 3.71348 8.92023 4.42015 9.65356C4.70681 9.96023 5.09348 10.1469 5.50014 10.1869C5.77348 10.2136 5.97348 10.4602 5.94681 10.7336C5.92681 10.9869 5.70681 11.1802 5.45347 11.1802Z" fill="#292D32"/>
<path d="M8.87335 12.1066C8.12669 12.1066 7.42669 11.8066 6.90669 11.2533C5.84002 10.1333 5.84002 8.31327 6.90669 7.19327L7.63335 6.42661C7.82669 6.22661 8.14002 6.21992 8.34002 6.40659C8.54002 6.59992 8.54668 6.91327 8.36002 7.11327L7.63335 7.87994C6.92669 8.61994 6.92669 9.8266 7.63335 10.5599C8.29335 11.2533 9.45335 11.2599 10.12 10.5599L11.58 9.0266C12.2867 8.2866 12.2867 7.07992 11.58 6.34659C11.2934 6.03992 10.9067 5.85327 10.5 5.81327C10.2267 5.7866 10.0267 5.53993 10.0534 5.26659C10.08 4.99326 10.32 4.78661 10.6 4.81994C11.2467 4.88661 11.8534 5.17993 12.3067 5.65993C13.3734 6.77993 13.3734 8.59992 12.3067 9.71992L10.8467 11.2533C10.32 11.8066 9.62002 12.1066 8.87335 12.1066Z" fill="#292D32"/>
<path d="M9.99992 15.1663H5.99992C2.37992 15.1663 0.833252 13.6197 0.833252 9.99967V5.99967C0.833252 2.37967 2.37992 0.833008 5.99992 0.833008H9.99992C13.6199 0.833008 15.1666 2.37967 15.1666 5.99967V9.99967C15.1666 13.6197 13.6199 15.1663 9.99992 15.1663ZM5.99992 1.83301C2.92659 1.83301 1.83325 2.92634 1.83325 5.99967V9.99967C1.83325 13.073 2.92659 14.1663 5.99992 14.1663H9.99992C13.0733 14.1663 14.1666 13.073 14.1666 9.99967V5.99967C14.1666 2.92634 13.0733 1.83301 9.99992 1.83301H5.99992Z" fill="#292D32"/>
</svg>
