<svg width="20" height="20" viewBox="0 0 20 20" fill="none" xmlns="http://www.w3.org/2000/svg">
<g clip-path="url(#clip0_626_781)">
<path d="M13.75 0C14.0104 0 14.2643 0.0416667 14.5117 0.125C14.7591 0.208333 14.987 0.333333 15.1953 0.5C15.4036 0.666667 15.5859 0.854167 15.7422 1.0625C15.8984 1.27083 16.0221 1.51389 16.1133 1.79167L19.6582 13.125C19.8861 13.8403 20 14.5764 20 15.3333C20 15.9792 19.8861 16.5833 19.6582 17.1458C19.4303 17.7083 19.1178 18.2014 18.7207 18.625C18.3236 19.0486 17.8613 19.3819 17.334 19.625C16.8066 19.8681 16.237 19.9931 15.625 20C15.0456 20 14.4889 19.8819 13.9551 19.6458C13.4212 19.4097 12.946 19.0729 12.5293 18.6354C12.1191 18.1979 11.8034 17.6944 11.582 17.125C11.3607 16.5556 11.25 15.9583 11.25 15.3333V10.6667H8.75V15.3333C8.75 15.9514 8.63932 16.5451 8.41797 17.1146C8.19661 17.684 7.88086 18.191 7.4707 18.6354C7.06055 19.0729 6.58854 19.4097 6.05469 19.6458C5.52083 19.8819 4.96094 20 4.375 20C3.76953 20 3.20312 19.8785 2.67578 19.6354C2.14844 19.3924 1.6862 19.059 1.28906 18.6354C0.891927 18.2118 0.579427 17.7188 0.351562 17.1562C0.123698 16.5938 0.00651042 15.9861 0 15.3333C0 14.5764 0.113932 13.8403 0.341797 13.125C0.374349 13.0278 0.449219 12.7917 0.566406 12.4167C0.683594 12.0417 0.826823 11.5764 0.996094 11.0208C1.16536 10.4653 1.35742 9.85417 1.57227 9.1875C1.78711 8.52083 2.00195 7.84375 2.2168 7.15625C2.43164 6.46875 2.63997 5.80208 2.8418 5.15625C3.04362 4.51042 3.22266 3.93403 3.37891 3.42708C3.53516 2.92014 3.65885 2.51736 3.75 2.21875C3.84115 1.92014 3.88997 1.76736 3.89648 1.76042C3.99414 1.50347 4.12109 1.26736 4.27734 1.05208C4.43359 0.836806 4.61263 0.649306 4.81445 0.489583C5.01628 0.329861 5.24089 0.211806 5.48828 0.135417C5.73568 0.0590278 5.98958 0.0138889 6.25 0C6.73177 0 7.12565 0.0833333 7.43164 0.25C7.73763 0.416667 7.98503 0.638889 8.17383 0.916667C8.36263 1.19444 8.49935 1.51736 8.58398 1.88542C8.66862 2.25347 8.7207 2.63542 8.74023 3.03125C8.75977 3.42708 8.76953 3.82292 8.76953 4.21875C8.76953 4.61458 8.76302 4.98611 8.75 5.33333H11.25C11.25 4.99306 11.2467 4.625 11.2402 4.22917C11.2337 3.83333 11.237 3.43403 11.25 3.03125C11.263 2.62847 11.3184 2.25 11.416 1.89583C11.5137 1.54167 11.6471 1.21875 11.8164 0.927083C11.9857 0.635417 12.2331 0.409722 12.5586 0.25C12.8841 0.0902778 13.2812 0.00694444 13.75 0ZM4.375 18.6667C4.80469 18.6667 5.20833 18.5799 5.58594 18.4062C5.96354 18.2326 6.29232 17.9931 6.57227 17.6875C6.85221 17.3819 7.07682 17.0278 7.24609 16.625C7.41536 16.2222 7.5 15.7917 7.5 15.3333C7.5 14.875 7.41862 14.4444 7.25586 14.0417C7.0931 13.6389 6.86849 13.2882 6.58203 12.9896C6.29557 12.691 5.96354 12.4514 5.58594 12.2708C5.20833 12.0903 4.80469 12 4.375 12C3.94531 12 3.54167 12.0868 3.16406 12.2604C2.78646 12.434 2.45768 12.6736 2.17773 12.9792C1.89779 13.2847 1.67318 13.6389 1.50391 14.0417C1.33464 14.4444 1.25 14.875 1.25 15.3333C1.25 15.7917 1.33138 16.2222 1.49414 16.625C1.6569 17.0278 1.88151 17.3785 2.16797 17.6771C2.45443 17.9757 2.78646 18.2153 3.16406 18.3958C3.54167 18.5764 3.94531 18.6667 4.375 18.6667ZM7.5 2.66667C7.5 2.47917 7.46745 2.30556 7.40234 2.14583C7.33724 1.98611 7.24935 1.84722 7.13867 1.72917C7.02799 1.61111 6.89453 1.51389 6.73828 1.4375C6.58203 1.36111 6.41927 1.32639 6.25 1.33333C5.99609 1.33333 5.75846 1.41667 5.53711 1.58333C5.31576 1.75 5.15951 1.96528 5.06836 2.22917L2.24609 11.25C2.57812 11.0625 2.92318 10.9201 3.28125 10.8229C3.63932 10.7257 4.00391 10.6736 4.375 10.6667C4.58984 10.6667 4.85026 10.6979 5.15625 10.7604C5.46224 10.8229 5.77148 10.9167 6.08398 11.0417C6.39648 11.1667 6.67969 11.316 6.93359 11.4896C7.1875 11.6632 7.3763 11.8576 7.5 12.0729V2.66667ZM11.25 9.33333V6.66667H8.75V9.33333H11.25ZM12.5 12.0729C12.6172 11.8576 12.8027 11.6632 13.0566 11.4896C13.3105 11.316 13.5938 11.1701 13.9062 11.0521C14.2188 10.934 14.528 10.8403 14.834 10.7708C15.14 10.7014 15.4036 10.6667 15.625 10.6667C15.9961 10.6667 16.3607 10.7153 16.7188 10.8125C17.0768 10.9097 17.4219 11.0556 17.7539 11.25L14.9316 2.22917C14.847 1.96528 14.694 1.75 14.4727 1.58333C14.2513 1.41667 14.0104 1.33333 13.75 1.33333C13.5742 1.33333 13.4115 1.36806 13.2617 1.4375C13.112 1.50694 12.9818 1.60069 12.8711 1.71875C12.7604 1.83681 12.6693 1.97917 12.5977 2.14583C12.526 2.3125 12.4935 2.48611 12.5 2.66667V12.0729ZM15.625 18.6667C16.0547 18.6667 16.4583 18.5799 16.8359 18.4062C17.2135 18.2326 17.5423 17.9931 17.8223 17.6875C18.1022 17.3819 18.3268 17.0278 18.4961 16.625C18.6654 16.2222 18.75 15.7917 18.75 15.3333C18.75 14.875 18.6686 14.4444 18.5059 14.0417C18.3431 13.6389 18.1185 13.2882 17.832 12.9896C17.5456 12.691 17.2135 12.4514 16.8359 12.2708C16.4583 12.0903 16.0547 12 15.625 12C15.1953 12 14.7917 12.0868 14.4141 12.2604C14.0365 12.434 13.7077 12.6736 13.4277 12.9792C13.1478 13.2847 12.9232 13.6389 12.7539 14.0417C12.5846 14.4444 12.5 14.875 12.5 15.3333C12.5 15.7917 12.5814 16.2222 12.7441 16.625C12.9069 17.0278 13.1315 17.3785 13.418 17.6771C13.7044 17.9757 14.0365 18.2153 14.4141 18.3958C14.7917 18.5764 15.1953 18.6667 15.625 18.6667Z" fill="#3461FD"/>
</g>
<defs>
<clipPath id="clip0_626_781">
<rect width="20" height="20" fill="white"/>
</clipPath>
</defs>
</svg>
