<svg width="18" height="18" viewBox="0 0 18 18" fill="none" xmlns="http://www.w3.org/2000/svg">
<path d="M14.5 1.75C14.5 2.21413 14.3156 2.65925 13.9874 2.98744C13.6592 3.31563 13.2141 3.5 12.75 3.5C12.2859 3.5 11.8408 3.31563 11.5126 2.98744C11.1844 2.65925 11 2.21413 11 1.75C11 1.28587 11.1844 0.840752 11.5126 0.512563C11.8408 0.184375 12.2859 0 12.75 0C13.2141 0 13.6592 0.184375 13.9874 0.512563C14.3156 0.840752 14.5 1.28587 14.5 1.75Z" fill="#7C82A1"/>
<path fill-rule="evenodd" clip-rule="evenodd" d="M12.75 2.5C12.9489 2.5 13.1397 2.42098 13.2803 2.28033C13.421 2.13968 13.5 1.94891 13.5 1.75C13.5 1.55109 13.421 1.36032 13.2803 1.21967C13.1397 1.07902 12.9489 1 12.75 1C12.5511 1 12.3603 1.07902 12.2197 1.21967C12.079 1.36032 12 1.55109 12 1.75C12 1.94891 12.079 2.13968 12.2197 2.28033C12.3603 2.42098 12.5511 2.5 12.75 2.5ZM12.75 3.5C12.9798 3.5 13.2074 3.45474 13.4197 3.36679C13.632 3.27884 13.8249 3.14994 13.9874 2.98744C14.1499 2.82493 14.2788 2.63202 14.3668 2.4197C14.4547 2.20738 14.5 1.97981 14.5 1.75C14.5 1.52019 14.4547 1.29262 14.3668 1.0803C14.2788 0.867984 14.1499 0.675066 13.9874 0.512563C13.8249 0.350061 13.632 0.221157 13.4197 0.133211C13.2074 0.0452652 12.9798 -3.42448e-09 12.75 0C12.2859 6.91606e-09 11.8408 0.184375 11.5126 0.512563C11.1844 0.840752 11 1.28587 11 1.75C11 2.21413 11.1844 2.65925 11.5126 2.98744C11.8408 3.31563 12.2859 3.5 12.75 3.5ZM6.5 5C6.23478 5 5.98043 5.10536 5.79289 5.29289C5.60536 5.48043 5.5 5.73478 5.5 6C5.5 6.26522 5.60536 6.51957 5.79289 6.70711C5.98043 6.89464 6.23478 7 6.5 7H10V17C10 17.2652 10.1054 17.5196 10.2929 17.7071C10.4804 17.8946 10.7348 18 11 18C11.2652 18 11.5196 17.8946 11.7071 17.7071C11.8946 17.5196 12 17.2652 12 17V12.5H13.5V17C13.5 17.2652 13.6054 17.5196 13.7929 17.7071C13.9804 17.8946 14.2348 18 14.5 18C14.7652 18 15.0196 17.8946 15.2071 17.7071C15.3946 17.5196 15.5 17.2652 15.5 17V10.9585C16.24 10.8311 16.9054 10.4309 17.3648 9.83696C17.8242 9.24297 18.0442 8.49833 17.9815 7.75004C17.9187 7.00176 17.5776 6.3042 17.0257 5.79508C16.4737 5.28595 15.7509 5.00226 15 5H6.5ZM16.5 8C16.5 7.73478 16.3946 7.48043 16.2071 7.29289C16.0196 7.10536 15.7652 7 15.5 7V9C15.7652 9 16.0196 8.89464 16.2071 8.70711C16.3946 8.51957 16.5 8.26522 16.5 8Z" fill="#7C82A1"/>
<path fill-rule="evenodd" clip-rule="evenodd" d="M0 13C0 12.7348 0.105357 12.4804 0.292893 12.2929C0.48043 12.1054 0.734784 12 1 12H7.5C7.76522 12 8.01957 12.1054 8.20711 12.2929C8.39464 12.4804 8.5 12.7348 8.5 13V17C8.5 17.2652 8.39464 17.5196 8.20711 17.7071C8.01957 17.8946 7.76522 18 7.5 18H1C0.734784 18 0.48043 17.8946 0.292893 17.7071C0.105357 17.5196 0 17.2652 0 17V13ZM2 16.5V13.5H3V16.5H2ZM5.5 13.5V16.5H6.5V13.5H5.5ZM2.5 11C2.5 10.7348 2.60536 10.4804 2.79289 10.2929C2.98043 10.1054 3.23478 10 3.5 10H5C5.26522 10 5.51957 10.1054 5.70711 10.2929C5.89464 10.4804 6 10.7348 6 11V12H5V11H3.5V12H2.5V11Z" fill="#7C82A1"/>
</svg>
