<svg width="57" height="57" viewBox="0 0 57 57" fill="none" xmlns="http://www.w3.org/2000/svg">
<path d="M46.1 28.4272C46.1 38.0703 38.2202 45.8876 28.5 45.8876C18.7798 45.8876 10.9 38.0703 10.9 28.4272C10.9 18.7842 18.7798 10.9669 28.5 10.9669C38.2202 10.9669 46.1 18.7842 46.1 28.4272Z" fill="#F8D000" stroke="#F8D000"/>
<path d="M1 28.5C1 13.3479 13.3783 1 28.5 1C43.6197 1 55.927 13.346 56 28.5006C55.9997 43.6524 43.6215 56 28.5 56C13.3056 56 1 43.6527 1 28.5ZM10.46 28.5728C10.46 38.5912 18.5402 46.6878 28.5 46.6878C38.4598 46.6878 46.54 38.5912 46.54 28.5728C46.54 18.5543 38.4598 10.4577 28.5 10.4577C18.5402 10.4577 10.46 18.5543 10.46 28.5728Z" fill="#0E0E15" stroke="#0E0E15"/>
<path fill-rule="evenodd" clip-rule="evenodd" d="M16.4 24.2804L39.1334 18.1693L33.0467 41.0132L27.84 31.5556L22.1934 37.2302L20.14 35.1204L25.7867 29.4458L16.4 24.2804Z" fill="#0E0E15"/>
</svg>
