<svg width="16" height="16" viewBox="0 0 16 16" fill="none" xmlns="http://www.w3.org/2000/svg">
<path d="M5.45335 11.1802C5.44002 11.1802 5.42002 11.1802 5.40669 11.1802C4.76002 11.1202 4.15336 10.8202 3.70002 10.3402C2.63336 9.22023 2.63336 7.40023 3.70002 6.28023L5.16003 4.74689C5.68003 4.20022 6.38002 3.89355 7.12669 3.89355C7.87336 3.89355 8.57335 4.19355 9.09335 4.74689C10.16 5.86689 10.16 7.68688 9.09335 8.80688L8.36669 9.57355C8.17336 9.77355 7.86003 9.78023 7.66003 9.59357C7.46003 9.40023 7.45336 9.08688 7.64003 8.88688L8.36669 8.12022C9.07336 7.38022 9.07336 6.17356 8.36669 5.44023C7.70669 4.74689 6.54669 4.74689 5.88003 5.44023L4.42003 6.97355C3.71336 7.71355 3.71336 8.92023 4.42003 9.65356C4.70669 9.96023 5.09336 10.1469 5.50002 10.1869C5.77336 10.2136 5.97335 10.4602 5.94669 10.7336C5.92669 10.9869 5.70668 11.1802 5.45335 11.1802Z" fill="#292D32"/>
<path d="M8.87348 12.1066C8.12681 12.1066 7.42681 11.8066 6.90681 11.2533C5.84014 10.1333 5.84014 8.31327 6.90681 7.19327L7.63348 6.42661C7.82681 6.22661 8.14014 6.21992 8.34014 6.40659C8.54014 6.59992 8.54681 6.91327 8.36014 7.11327L7.63348 7.87994C6.92681 8.61994 6.92681 9.8266 7.63348 10.5599C8.29348 11.2533 9.45347 11.2599 10.1201 10.5599L11.5801 9.0266C12.2868 8.2866 12.2868 7.07992 11.5801 6.34659C11.2935 6.03992 10.9068 5.85327 10.5001 5.81327C10.2268 5.7866 10.0268 5.53993 10.0535 5.26659C10.0801 4.99326 10.3201 4.78661 10.6001 4.81994C11.2468 4.88661 11.8535 5.17993 12.3068 5.65993C13.3735 6.77993 13.3735 8.59992 12.3068 9.71992L10.8468 11.2533C10.3201 11.8066 9.62014 12.1066 8.87348 12.1066Z" fill="#292D32"/>
<path d="M10 15.1668H6.00004C2.38004 15.1668 0.833374 13.6202 0.833374 10.0002V6.00016C0.833374 2.38016 2.38004 0.833496 6.00004 0.833496H10C13.62 0.833496 15.1667 2.38016 15.1667 6.00016V10.0002C15.1667 13.6202 13.62 15.1668 10 15.1668ZM6.00004 1.8335C2.92671 1.8335 1.83337 2.92683 1.83337 6.00016V10.0002C1.83337 13.0735 2.92671 14.1668 6.00004 14.1668H10C13.0734 14.1668 14.1667 13.0735 14.1667 10.0002V6.00016C14.1667 2.92683 13.0734 1.8335 10 1.8335H6.00004Z" fill="#292D32"/>
</svg>
