<svg width="16" height="16" viewBox="0 0 16 16" fill="none" xmlns="http://www.w3.org/2000/svg">
<path d="M12.4067 4.45338C12.1333 4.45338 11.9067 4.22671 11.9067 3.95338V2.94671C11.9067 2.54671 11.58 2.21338 11.1733 2.21338H2.55333C2.15333 2.21338 1.81999 2.54005 1.81999 2.94671V3.95338C1.81999 4.22671 1.59333 4.45338 1.31999 4.45338C1.04666 4.45338 0.82666 4.22671 0.82666 3.95338V2.94671C0.82666 1.99338 1.60666 1.21338 2.55999 1.21338H11.1733C12.1267 1.21338 12.9067 1.98671 12.9067 2.94671V3.95338C12.9067 4.22671 12.68 4.45338 12.4067 4.45338Z" fill="#292D32"/>
<path d="M6.8667 12.5667C6.59337 12.5667 6.3667 12.34 6.3667 12.0667V2.21338C6.3667 1.94005 6.59337 1.71338 6.8667 1.71338C7.14003 1.71338 7.3667 1.94005 7.3667 2.21338V12.0667C7.3667 12.3467 7.14003 12.5667 6.8667 12.5667Z" fill="#292D32"/>
<path d="M8.31998 12.5669H4.59998C4.32664 12.5669 4.09998 12.3402 4.09998 12.0669C4.09998 11.7936 4.32664 11.5669 4.59998 11.5669H8.31998C8.59331 11.5669 8.81998 11.7936 8.81998 12.0669C8.81998 12.3402 8.59331 12.5669 8.31998 12.5669Z" fill="#292D32"/>
<path d="M14.6733 8.80005C14.4 8.80005 14.1733 8.57339 14.1733 8.30005V7.76672C14.1733 7.56005 14 7.38672 13.7933 7.38672H9.12C8.84666 7.38672 8.62 7.16005 8.62 6.88672C8.62 6.61339 8.84666 6.38672 9.12 6.38672H13.7933C14.5533 6.38672 15.1733 7.00672 15.1733 7.76672V8.30005C15.1733 8.58005 14.9533 8.80005 14.6733 8.80005Z" fill="#292D32"/>
<path d="M10.72 14.7866C10.4466 14.7866 10.22 14.5599 10.22 14.2866V7.24658C10.22 6.97325 10.4466 6.74658 10.72 6.74658C10.9933 6.74658 11.22 6.97325 11.22 7.24658V14.2866C11.22 14.5599 10.9933 14.7866 10.72 14.7866Z" fill="#292D32"/>
<path d="M12.1467 14.7866H9.29334C9.02 14.7866 8.79333 14.56 8.79333 14.2866C8.79333 14.0133 9.02 13.7866 9.29334 13.7866H12.1467C12.42 13.7866 12.6467 14.0133 12.6467 14.2866C12.6467 14.56 12.42 14.7866 12.1467 14.7866Z" fill="#292D32"/>
</svg>
